<svg xmlns="http://www.w3.org/2000/svg" viewBox="0 0 350 200"><defs>
<style>.cls-1{fill:#8a1348;}.cls-2{fill:#939393;}.cls-3{fill:#fff;}</style></defs>
<title>Artboard 5 copy 2</title>
<g id="Layer_3" data-name="Layer 3">

<path class="cls-1" d="M93.45,130v3.41a.19.19,0,0,0,.07.17.21.21,0,0,0,.15.07h.26v1h-.59a1.12,1.12,0,0,1-.79-.35,1.89,1.89,0,0,1-2.48,0,2.33,2.33,0,0,1-.72-1.79,2.39,2.39,0,0,1,.66-1.72,2,2,0,0,1,1.48-.61,2.52,2.52,0,0,1,1,.21l.4-.32Zm-1.15,1.22a1.85,1.85,0,0,0-.64-.12,1.07,1.07,0,0,0-.84.38,1.38,1.38,0,0,0-.33,1,1.45,1.45,0,0,0,.3,1,1,1,0,0,0,.8.36,1.89,1.89,0,0,0,.71-.15Z"/>

<path class="cls-1" d="M95.62,133.65v1H93.87v-1Z"/>

<path class="cls-1" d="M97.3,133.65v1H95.55v-1Z"/>
<path class="cls-1" d="M99,133.65v1H97.24v-1Z"/>
<path class="cls-1" d="M100.67,133.65v1H98.92v-1Z"/>
<path class="cls-1" d="M102.35,133.65v1H100.6v-1Z"/>
<path class="cls-1" d="M104,133.65v1h-1.75v-1Z"/>
<path class="cls-1" d="M105.72,133.65v1H104v-1Z"/>
<path class="cls-1" d="M107.4,133.65v1h-1.75v-1Z"/>
<path class="cls-1" d="M109.09,133.65v1h-1.75v-1Z"/>
<path class="cls-1" d="M110.77,133.65v1H109v-1Z"/>
<path class="cls-1" d="M112.45,133.65v1H110.7v-1Z"/>
<path class="cls-1" d="M114.14,133.65v1h-1.75v-1Z"/>
<path class="cls-1" d="M115.82,133.65v1h-1.75v-1Z"/>
<path class="cls-1" d="M117.51,133.65v1h-1.75v-1Z"/>
<path class="cls-1" d="M119.19,133.65v1h-1.75v-1Z"/>
<path class="cls-1" d="M120.87,133.65v1h-1.75v-1Z"/>
<path class="cls-1" d="M122.56,133.65v1h-1.75v-1Z"/>
<path class="cls-1" d="M124.24,133.65v1h-1.75v-1Z"/>
<path class="cls-1" d="M125.92,133.65v1h-1.75v-1Z"/>
<path class="cls-1" d="M127.61,133.65v1h-1.75v-1Z"/>
<path class="cls-1" d="M129.29,133.65v1h-1.75v-1Z"/>
<path class="cls-1" d="M131,133.65v1h-1.75v-1Z"/>
<path class="cls-1" d="M132.81,133.65a2.26,2.26,0,0,1-.3-.54,2.39,2.39,0,0,1-.14-.84,1.94,1.94,0,0,1,.76-1.65,2.5,2.5,0,0,1,1.57-.47,3.51,3.51,0,0,1,1,.16v.9a4.38,4.38,0,0,0-.92-.12,1.15,1.15,0,0,0-1.3,1.3,1.41,1.41,0,0,0,.2.74,1.08,1.08,0,0,0,1,.52h1.84V134l-.47.59h-5.14v-1Z"/>
<path class="cls-1" d="M139.57,134.61a2,2,0,0,1-1.63-.71,2.22,2.22,0,0,1,1.69-3.75,2.12,2.12,0,0,1,1.23.35,1.62,1.62,0,0,1,.68,1.4v1.75h.3v1h-.31a2.21,2.21,0,0,1-.72,1.6,2.41,2.41,0,0,1-1.09.56,3.69,3.69,0,0,1-.87.1,3.27,3.27,0,0,1-.4,0h0l-.48-.59v-.42a4.85,4.85,0,0,0,.72.07c1,0,1.6-.44,1.7-1.3Zm.82-2.71a.78.78,0,0,0-.25-.6.74.74,0,0,0-.51-.19,1,1,0,0,0-.77.34,1.42,1.42,0,0,0-.28.94,1.31,1.31,0,0,0,.31.92,1.12,1.12,0,0,0,.85.34h.65Z"/>
<path class="cls-1" d="M143.53,133.65v1h-1.75v-1Z"/>
<path class="cls-1" d="M145.21,133.65v1h-1.75v-1Z"/>
<path class="cls-1" d="M146.89,133.65v1h-1.75v-1Z"/>
<path class="cls-1" d="M148.58,133.65v1h-1.75v-1Z"/>
<path class="cls-1" d="M150.26,133.65v1h-1.75v-1Z"/>
<path class="cls-1" d="M152,133.65v1H150.2v-1Z"/>
<path class="cls-1" d="M153.63,133.65v1h-1.75v-1Z"/>
<path class="cls-1" d="M155.31,133.65v1h-1.75v-1Z"/>
<path class="cls-1" d="M157,133.65v1h-1.75v-1Z"/>
<path class="cls-1" d="M158.68,133.65v1h-1.75v-1Z"/>
<path class="cls-1" d="M160.52,133.65a2.18,2.18,0,0,1-.35-.66,3,3,0,0,1-.1-.72,2.08,2.08,0,0,1,.48-1.39,2.13,2.13,0,0,1,1.73-.73,2.07,2.07,0,0,1,1.33.42,1.68,1.68,0,0,1,.58,1.33v1.67a1,1,0,0,1-.26.69,1,1,0,0,1-.77.35h-4.55v-1Zm1-5.47a.61.61,0,1,1-.43.18A.58.58,0,0,1,161.57,128.18ZM163,131.9a.83.83,0,0,0-.26-.63.76.76,0,0,0-.49-.16.93.93,0,0,0-.88.48,1.51,1.51,0,0,0-.18.77,1.28,1.28,0,0,0,.39,1,1.2,1.2,0,0,0,.84.3h.34a.21.21,0,0,0,.24-.24Zm0-3.72a.6.6,0,0,1,.44.18.6.6,0,0,1,0,.86.6.6,0,0,1-.44.18.58.58,0,0,1-.42-.18.6.6,0,0,1,0-.86A.58.58,0,0,1,163,128.18Z"/>
<path class="cls-1" d="M168.17,134.57a2.82,2.82,0,0,1-.8.12,2,2,0,0,1-1.63-.78,2.48,2.48,0,0,1-.51-1.54,2.21,2.21,0,0,1,.58-1.58,2.35,2.35,0,0,1,2.89-.26,1.58,1.58,0,0,1,.64,1.37v2.48a2.32,2.32,0,0,1-.78,1.88,2.51,2.51,0,0,1-1.1.53,3.38,3.38,0,0,1-.74.07,2.33,2.33,0,0,1-.33,0l-.46-.57v-.41a4,4,0,0,0,.59,0C167.54,135.91,168.08,135.46,168.17,134.57Zm0-2.67a.77.77,0,0,0-.28-.63.7.7,0,0,0-.48-.16.92.92,0,0,0-.77.34,1.67,1.67,0,0,0,0,1.91,1.11,1.11,0,0,0,.86.35,2.09,2.09,0,0,0,.63-.11Z"/>
<path class="cls-1" d="M174.9,130.26v4.12a2.31,2.31,0,0,1-.72,1.82,2.68,2.68,0,0,1-1.19.6,4.08,4.08,0,0,1-.71.06,2.19,2.19,0,0,1-.33,0l-.46-.57v-.41a4,4,0,0,0,.58,0,1.47,1.47,0,0,0,1.68-1.63v-4Z"/>
<path class="cls-1" d="M178.22,134.61a2,2,0,0,1-1.63-.71,2.22,2.22,0,0,1,1.69-3.75,2.12,2.12,0,0,1,1.23.35,1.62,1.62,0,0,1,.68,1.4v1.75h.3v1h-.31a2.21,2.21,0,0,1-.72,1.6,2.41,2.41,0,0,1-1.09.56,3.69,3.69,0,0,1-.87.1,3.27,3.27,0,0,1-.4,0h0l-.48-.59v-.42a4.73,4.73,0,0,0,.72.07c1,0,1.6-.44,1.7-1.3Zm.82-2.71a.78.78,0,0,0-.25-.6.75.75,0,0,0-.51-.19,1,1,0,0,0-.77.34,1.42,1.42,0,0,0-.28.94,1.31,1.31,0,0,0,.31.92,1.12,1.12,0,0,0,.85.34H179Z"/>
<path class="cls-1" d="M182.18,133.65v1h-1.75v-1Z"/>
<path class="cls-1" d="M183.86,133.65v1h-1.75v-1Z"/>
<path class="cls-1" d="M185.54,133.65v1h-1.75v-1Z"/>
<path class="cls-1" d="M187.23,133.65v1h-1.75v-1Z"/>
<path class="cls-1" d="M188.91,133.65v1h-1.75v-1Z"/>
<path class="cls-1" d="M190.59,133.65v1h-1.75v-1Z"/>
<path class="cls-1" d="M192.28,133.65v1h-1.75v-1Z"/>
<path class="cls-1" d="M194,133.65v1h-1.75v-1Z"/>
<path class="cls-1" d="M195.65,133.65v1H193.9v-1Z"/>
<path class="cls-1" d="M197.33,133.65v1h-1.75v-1Z"/>
<path class="cls-1" d="M199,133.65v1h-1.75v-1Z"/>
<path class="cls-1" d="M200.7,133.65v1H199v-1Z"/>
<path class="cls-1" d="M202.53,133.65a2.16,2.16,0,0,1-.34-.66,2.55,2.55,0,0,1-.1-.72,2.08,2.08,0,0,1,.48-1.39,2.13,2.13,0,0,1,1.73-.73,2,2,0,0,1,1.32.42,1.64,1.64,0,0,1,.58,1.33v1.67a1,1,0,0,1-.25.69,1,1,0,0,1-.77.35h-4.55v-1Zm2.52-1.75a.8.8,0,0,0-.27-.63.75.75,0,0,0-.48-.16.94.94,0,0,0-.89.48,1.51,1.51,0,0,0-.18.77,1.25,1.25,0,0,0,.4,1,1.17,1.17,0,0,0,.84.3h.34a.21.21,0,0,0,.24-.24Zm-.75-3.72a.6.6,0,0,1,.44.18.6.6,0,0,1,0,.86.6.6,0,0,1-.44.18.6.6,0,0,1-.43-.18.63.63,0,0,1,0-.86A.6.6,0,0,1,204.3,128.18Z"/>
<path class="cls-1" d="M217.09,130.26v3.31a1.05,1.05,0,0,1-1,1h-5.3a1.52,1.52,0,0,1-1.06-.4,1.6,1.6,0,0,1-.59-1.3v-1.5l.58-.47h.57v2a.71.71,0,0,0,.23.54.72.72,0,0,0,.5.2h4.7a.21.21,0,0,0,.24-.24v-3.15Zm-4.7-.26a.58.58,0,0,1,.43.18.6.6,0,0,1,.18.44.61.61,0,0,1-.61.61.57.57,0,0,1-.43-.18.58.58,0,0,1-.18-.43.6.6,0,0,1,.18-.44A.57.57,0,0,1,212.39,130Zm.72-1.13a.51.51,0,0,1,.39.16.57.57,0,0,1,.16.41.55.55,0,0,1-.16.4.51.51,0,0,1-.39.16.57.57,0,0,1-.41-.16.55.55,0,0,1-.16-.4.55.55,0,0,1,.57-.57Zm.72,1.13a.58.58,0,0,1,.42.18.6.6,0,0,1,.18.44.58.58,0,0,1-.18.43.58.58,0,0,1-.42.18.6.6,0,0,1-.44-.18.58.58,0,0,1-.18-.43.61.61,0,0,1,.62-.62Z"/>
<path class="cls-1" d="M219.08,130.2a5.27,5.27,0,0,1,.74,0,2.31,2.31,0,0,1,1.76.7,2.18,2.18,0,0,1,.6,1.57v.9a2.83,2.83,0,0,1,0,.33h.24v1h-.12l-.31-.39h0a1.21,1.21,0,0,1-.16.16.94.94,0,0,1-.63.23h-3v-1h2.67c.16,0,.23-.08.23-.24v-.88a1.42,1.42,0,0,0-.39-1.05,1.53,1.53,0,0,0-1.07-.4,2.51,2.51,0,0,0-.48,0Z"/>
<path class="cls-1" d="M224.1,133.65v1h-1.75v-1Z"/>
<path class="cls-1" d="M225.78,133.65v1H224v-1Z"/>
<path class="cls-1" d="M227.47,133.65v1h-1.75v-1Z"/>
<path class="cls-1" d="M229.15,133.65v1H227.4v-1Z"/>
<path class="cls-1" d="M230.83,133.65v1h-1.75v-1Z"/>
<path class="cls-1" d="M232.52,133.65v1h-1.75v-1Z"/>
<path class="cls-1" d="M234.2,133.65v1h-1.75v-1Z"/>
<path class="cls-1" d="M235.88,133.65v1h-1.75v-1Z"/>
<path class="cls-1" d="M237.57,133.65v1h-1.75v-1Z"/>
<path class="cls-1" d="M238.75,130.42a5.77,5.77,0,0,1,1.64-.27,2.46,2.46,0,0,1,1.84.72,2.22,2.22,0,0,1,.64,1.62v1.16h.31v1H243l-.31-.39h0a1,1,0,0,1-.81.39h-4.35v-1h4a.21.21,0,0,0,.24-.24v-.85a1.33,1.33,0,0,0-.43-1,1.62,1.62,0,0,0-1.13-.39,7,7,0,0,0-1.4.21Z"/>
<path class="cls-1" d="M246,127.84v5.73a1,1,0,0,1-.26.68.93.93,0,0,1-.76.36h-1.83v-1h1.46a.25.25,0,0,0,.18-.08.23.23,0,0,0,.06-.16v-5.57Z"/>
<path class="cls-1" d="M248.42,127.84v6.53l-.59.48h-.57v-7Z"/>
<path class="cls-2" d="M216.25,89a24.06,24.06,0,0,0,.13,2.55.49.49,0,0,0,.49.45h0a.5.5,0,0,0,.44-.55c-.06-.64-.09-1.3-.11-2h7.88c0,.68,0,1.36.06,2a.5.5,0,0,0,.5.47h0a.5.5,0,0,0,.46-.53c0-.65-.05-1.31-.06-2h14.6v2.21a.5.5,0,1,0,1,0V89.48h7a.5.5,0,0,0,.5-.5.51.51,0,0,0-.5-.5h-7V82.3a35.43,35.43,0,0,0,13.38-2.71,34.38,34.38,0,0,1,1.06,5.76.49.49,0,0,0,.49.45h.05a.49.49,0,0,0,.44-.54,37.07,37.07,0,0,0-1.1-6.1,23.34,23.34,0,0,0,5.21-3.33,23.81,23.81,0,0,1,3.93,12.65h-1.85a.5.5,0,0,0-.5.5.5.5,0,0,0,.5.5h1.85c0,.65,0,1.31-.11,2a.5.5,0,0,0,.44.55h.06a.5.5,0,0,0,.49-.45c.08-.84.13-1.7.13-2.55a24.82,24.82,0,0,0-4.41-14.14.53.53,0,0,0-.06-.1s0,0,0,0a25.29,25.29,0,0,0-7.55-7.09l-.08,0a24.83,24.83,0,0,0-25.64,0,.47.47,0,0,0-.25.15,25,25,0,0,0-7.24,6.71.49.49,0,0,0-.37.15.52.52,0,0,0-.1.52c-.24.36-.48.72-.7,1.1a.49.49,0,1,0,.85.5c.18-.3.38-.59.58-.89,4.6,4,11.79,6.38,19.53,6.48v6.18H226.11c0-.85,0-1.71.12-2.55a.5.5,0,0,0-.46-.53.49.49,0,0,0-.53.45c-.07.87-.11,1.75-.12,2.63h-7.86a23.82,23.82,0,0,1,.21-2.8.51.51,0,0,0-.43-.56.5.5,0,0,0-.56.42A26.38,26.38,0,0,0,216.25,89Zm24.47-19.19a36.81,36.81,0,0,1-7.72-.9A11.71,11.71,0,0,1,240.72,65Zm1-4.74a11.58,11.58,0,0,1,7.67,3.85,36.42,36.42,0,0,1-7.67.89Zm-1,16.25a34.25,34.25,0,0,1-13.12-2.67,24.63,24.63,0,0,1,4.65-8.91,37.27,37.27,0,0,0,8.47,1.06ZM228.64,68.61c.83.31,1.68.59,2.56.84a25.76,25.76,0,0,0-4.51,8.76A22,22,0,0,1,221.75,75,24.1,24.1,0,0,1,228.64,68.61Zm6.67-2.85a16,16,0,0,0-3.39,2.85q-1.11-.28-2.16-.66A24.39,24.39,0,0,1,235.31,65.76Zm11.85,0a24,24,0,0,1,5.53,2.18c-.69.24-1.4.46-2.12.66A15.51,15.51,0,0,0,247.16,65.76Zm8.59,12.44a26,26,0,0,0-4.48-8.76c.87-.25,1.72-.53,2.54-.84a24.07,24.07,0,0,1,6.86,6.4A21.52,21.52,0,0,1,255.75,78.2Zm-14,3.1V70.78a37.08,37.08,0,0,0,8.44-1,25.12,25.12,0,0,1,4.67,8.9A34.17,34.17,0,0,1,241.71,81.3Z"/>
<path class="cls-2" d="M241.21,92.54a.85.85,0,0,1-.85-.85V89.83H226.48c0,.54,0,1.07.06,1.6a.85.85,0,0,1-.8.9h0a.87.87,0,0,1-.9-.79c0-.56-.05-1.14-.06-1.71h-7.16c0,.57,0,1.09.1,1.57a.86.86,0,0,1-.76.93.84.84,0,0,1-.94-.76c-.08-.86-.13-1.73-.13-2.59a25.37,25.37,0,0,1,.24-3.49.86.86,0,0,1,.33-.56.8.8,0,0,1,.63-.16.78.78,0,0,1,.56.33.83.83,0,0,1,.17.63,21.75,21.75,0,0,0-.2,2.4h7.15c0-.83.06-1.59.11-2.31a.86.86,0,0,1,.92-.78.87.87,0,0,1,.58.3.82.82,0,0,1,.2.62c-.05.68-.09,1.39-.11,2.17h13.89V82.64c-7.55-.16-14.47-2.44-19.1-6.29-.12.18-.23.36-.34.55a.86.86,0,0,1-1.56-.23.87.87,0,0,1,.1-.65c.2-.33.41-.66.62-1a.85.85,0,0,1,.23-.69.78.78,0,0,1,.43-.25A25.44,25.44,0,0,1,228,67.45a.79.79,0,0,1,.33-.2A25.27,25.27,0,0,1,262,74.48l0,0a.79.79,0,0,1,.1.16,25.31,25.31,0,0,1,4.33,16.91.85.85,0,0,1-.85.76.86.86,0,0,1-.84-.93c.05-.48.08-1,.1-1.57h-1.49a.85.85,0,0,1,0-1.7h1.49a23.51,23.51,0,0,0-3.65-11.77,23.79,23.79,0,0,1-4.72,3,36,36,0,0,1,1.05,5.86.89.89,0,0,1-.19.63.87.87,0,0,1-.58.3h0a.88.88,0,0,1-.92-.76,34.24,34.24,0,0,0-.93-5.32,35.52,35.52,0,0,1-12.8,2.57v5.49h6.69a.85.85,0,0,1,0,1.7h-6.69v1.86A.85.85,0,0,1,241.21,92.54Zm-15.45-3.42h15.31v2.57c0,.16.28.16.28,0V89.12h7.4a.14.14,0,1,0,0-.28h-7.4V82h.35A35,35,0,0,0,255,79.26l.38-.16.11.4a35.7,35.7,0,0,1,1.06,5.82.15.15,0,0,0,.14.13.16.16,0,0,0,.14-.16,36.62,36.62,0,0,0-1.1-6l-.07-.29.26-.13A22.22,22.22,0,0,0,261,75.56l.31-.27.22.34a24.25,24.25,0,0,1,4,12.85v.36h-2.21a.14.14,0,0,0,0,.28h2.21v.36c0,.74-.06,1.39-.12,2a.14.14,0,0,0,.13.15h0c.09,0,.15-.05.15-.12a23.77,23.77,0,0,0,.13-2.52,24.4,24.4,0,0,0-4.34-13.93l0,0-.07-.06a25.2,25.2,0,0,0-7.48-7,24.47,24.47,0,0,0-25.34-.05l-.25.15a24.67,24.67,0,0,0-7.14,6.62l-.11.15h-.18s-.08,0-.11,0a.14.14,0,0,0,0,.15l.06.17-.1.16c-.24.35-.48.71-.7,1.08a.12.12,0,0,0,0,.1.11.11,0,0,0,.06.09.15.15,0,0,0,.2,0l.49-.77.31-.47.31.27c4.57,4,11.61,6.28,19.3,6.38h.35v6.89H225.76v-.36c0-.94.05-1.78.11-2.58a.14.14,0,0,0-.13-.15.16.16,0,0,0-.15.13c-.06.8-.1,1.66-.11,2.61v.35H216.9v-.36a24.4,24.4,0,0,1,.21-2.85.17.17,0,0,0,0-.11.3.3,0,0,0-.1,0,.1.1,0,0,0-.1,0,.13.13,0,0,0-.06.09A25.51,25.51,0,0,0,216.6,89c0,.83.05,1.68.13,2.52a.14.14,0,0,0,.14.12.13.13,0,0,0,.14-.15c-.06-.6-.1-1.25-.11-2v-.36h8.59v.35c0,.68,0,1.36.07,2a.13.13,0,0,0,.14.13.13.13,0,0,0,.14-.15c0-.65-.06-1.32-.06-2Zm35.86-14.24-.07.11.21-.17Zm-20.27,6.78V70.43h.35a37,37,0,0,0,8.36-1.05l.22,0,.14.17a25.47,25.47,0,0,1,4.74,9l.09.3L255,79a34.61,34.61,0,0,1-13.25,2.7Zm.71-10.53v9.81a33.78,33.78,0,0,0,12.32-2.51A24.72,24.72,0,0,0,250,70.12,37.87,37.87,0,0,1,242.06,71.13Zm-1,10.53h-.36A34.52,34.52,0,0,1,227.45,79l-.29-.12.1-.3a25.16,25.16,0,0,1,4.72-9l.14-.17.21.05a36.86,36.86,0,0,0,8.39,1.06h.35Zm-13-3.23a33.83,33.83,0,0,0,12.33,2.51V71.13a38.24,38.24,0,0,1-8-1A24.58,24.58,0,0,0,228,78.43Zm-1.12.28-.38-.18a22.1,22.1,0,0,1-5-3.26l-.24-.21.19-.27a24.14,24.14,0,0,1,7-6.48l.15-.1.16.07c.83.31,1.68.59,2.53.83l.52.14-.34.42A25.92,25.92,0,0,0,227,78.31ZM222.23,75a22,22,0,0,0,4.24,2.76,26.9,26.9,0,0,1,4.12-8.07c-.64-.19-1.28-.41-1.91-.64A23.48,23.48,0,0,0,222.23,75Zm33.3,3.75-.12-.39A25.57,25.57,0,0,0,251,69.66l-.34-.42.52-.15c.85-.24,1.69-.51,2.52-.82l.16-.06.15.09a24.36,24.36,0,0,1,7,6.5l.19.26-.25.21a22.22,22.22,0,0,1-5,3.25Zm-3.66-9.07A26.62,26.62,0,0,1,256,77.7,21.57,21.57,0,0,0,260.19,75a23.68,23.68,0,0,0-6.42-6C253.15,69.22,252.51,69.44,251.87,69.63Zm-10.8.52h-.36a37.48,37.48,0,0,1-7.79-.92l-.61-.14.44-.45a12,12,0,0,1,7.95-4l.37,0Zm-7.35-1.47a36,36,0,0,0,6.64.75v-4A11.23,11.23,0,0,0,233.72,68.68Zm7.63,1.47V64.67l.38,0a12,12,0,0,1,7.91,4l.44.45-.62.14a37,37,0,0,1-7.75.91Zm.71-4.72v4a36.55,36.55,0,0,0,6.61-.74A11.21,11.21,0,0,0,242.06,65.43ZM232,69l-.21-.05c-.72-.2-1.45-.42-2.18-.67l-.76-.26.71-.39a24.79,24.79,0,0,1,5.64-2.22l2.29-.59-2,1.24a15.14,15.14,0,0,0-3.32,2.78Zm-1.36-1.13,1.13.34a16.77,16.77,0,0,1,1.57-1.49A22.79,22.79,0,0,0,230.67,67.88ZM250.45,69l-.15-.16A15.15,15.15,0,0,0,247,66.06l-2-1.24,2.31.59a24.1,24.1,0,0,1,5.62,2.22l.71.39-.76.26c-.73.25-1.45.47-2.15.66Zm-1.32-2.27a19.34,19.34,0,0,1,1.55,1.47l1.11-.33A23.13,23.13,0,0,0,249.13,66.73Z"/>
<path class="cls-2" d="M103.25,97.1a1.59,1.59,0,0,0,1.62-1.63,1.53,1.53,0,0,0-.46-1.12,1.59,1.59,0,0,0-1.16-.48,1.62,1.62,0,0,0-1.6,1.6,1.6,1.6,0,0,0,.47,1.16A1.53,1.53,0,0,0,103.25,97.1Z"/>
<path class="cls-2" d="M102.17,92a1.55,1.55,0,0,0,2.18,0l0,0a1.58,1.58,0,0,0,.47-1.15,1.55,1.55,0,0,0-.47-1.13,1.59,1.59,0,0,0-2.26,0,1.55,1.55,0,0,0-.47,1.13,1.58,1.58,0,0,0,.47,1.15Z"/>
<path class="cls-1" d="M127.46,99.38a1.54,1.54,0,0,0,1.15-.47,1.6,1.6,0,0,0,.47-1.16,1.62,1.62,0,0,0-1.62-1.6,1.52,1.52,0,0,0-1.13.48,1.5,1.5,0,0,0-.47,1.12,1.56,1.56,0,0,0,.47,1.16A1.51,1.51,0,0,0,127.46,99.38Z"/>
<path class="cls-1" d="M173.21,114.77a1.13,1.13,0,0,1-.32.84,1.18,1.18,0,0,1-.92.4h-6.12a3.11,3.11,0,0,0,.1-.79V95h-2.78v19.79a1.24,1.24,0,0,1-1.24,1.24h-5.54a3.13,3.13,0,0,0,.11-.79v-4.14a8.48,8.48,0,0,0-1.83-5.64,7.63,7.63,0,0,0-6.16-2.5,18.71,18.71,0,0,0-5.61.94v2.19a28.17,28.17,0,0,1,5.21-.72,5.48,5.48,0,0,1,4.28,1.62,5.75,5.75,0,0,1,1.33,4v3.78a1.09,1.09,0,0,1-1.23,1.24h-14.8a3.28,3.28,0,0,0,.1-.79v-4.33a7.61,7.61,0,0,0-2.16-5.58,8.51,8.51,0,0,0-6.29-2.37q-7.26,0-11.7,7.55V95H114.9v21h-6.29a.92.92,0,0,1-.65-.33,1.22,1.22,0,0,1-.33-.91V102.44h-.06a4.09,4.09,0,0,0-4-3.51H100a.1.1,0,0,1-.11-.11,2.69,2.69,0,0,0-2.69-2.69h-7a2.7,2.7,0,0,0-2.68,2.69.11.11,0,0,1-.12.11h-3.5a4.09,4.09,0,0,0-4.08,4.1v11.2a4.09,4.09,0,0,0,4.08,4.09h19.61a4.13,4.13,0,0,0,2.35-.75,2.83,2.83,0,0,0,2,.75h26.93a2.78,2.78,0,0,0,2.27-1.14h.11l.94,1.14h15.42a2.81,2.81,0,0,0,2.28-1.14h.1l.92,1.14H163a2.75,2.75,0,0,0,2.28-1.14h.1l1.08,1.14H173a2.79,2.79,0,0,0,2.19-1,3,3,0,0,0,.77-2.08v-11.9h-2.77Zm-77.85,1H83.92a1.52,1.52,0,0,1-1.51-1.51V103a1.51,1.51,0,0,1,1.51-1.51h3.5a2.69,2.69,0,0,0,2.69-2.7.12.12,0,0,1,.11-.11h7a.12.12,0,0,1,.12.11,2.69,2.69,0,0,0,2.68,2.7h3.5a1.51,1.51,0,0,1,1.52,1.51v11.2a1.53,1.53,0,0,1-1.52,1.51H95.36Zm39.63-1a1.09,1.09,0,0,1-1.22,1.24H117.64q2.31-6.33,6.1-9a9,9,0,0,1,5.21-1.7,6.7,6.7,0,0,1,4,1.14,4.8,4.8,0,0,1,2,4.15Z"/>
<path class="cls-1" d="M173.77,121.71a1.51,1.51,0,0,0-1.13.47,1.62,1.62,0,0,0,0,2.28,1.56,1.56,0,0,0,2.25,0,1.59,1.59,0,0,0,0-2.28A1.5,1.5,0,0,0,173.77,121.71Z"/>
<path class="cls-1" d="M198.12,99.38a1.54,1.54,0,0,0,1.15-.47,1.56,1.56,0,0,0,.47-1.16,1.5,1.5,0,0,0-.47-1.12,1.55,1.55,0,0,0-1.15-.48,1.52,1.52,0,0,0-1.13.48,1.54,1.54,0,0,0-.47,1.12,1.6,1.6,0,0,0,.47,1.16A1.51,1.51,0,0,0,198.12,99.38Z"/>
<path class="cls-1" d="M194.17,99.38a1.53,1.53,0,0,0,1.13-.47,1.6,1.6,0,0,0,.47-1.16,1.62,1.62,0,0,0-1.6-1.6,1.64,1.64,0,0,0-1.6,1.6,1.57,1.57,0,0,0,.48,1.16A1.5,1.5,0,0,0,194.17,99.38Z"/>
<path class="cls-1" d="M219.56,99.38a1.62,1.62,0,0,0,1.64-1.63,1.51,1.51,0,0,0-.48-1.12,1.57,1.57,0,0,0-1.16-.48,1.62,1.62,0,0,0-1.6,1.6,1.6,1.6,0,0,0,.47,1.16A1.54,1.54,0,0,0,219.56,99.38Z"/>
<path class="cls-1" d="M255.29,95v19.79a1.27,1.27,0,0,1-.3.81,1.09,1.09,0,0,1-.94.43h-5.54a3.61,3.61,0,0,0,.09-.79v-4.14a8.47,8.47,0,0,0-1.82-5.64,7.63,7.63,0,0,0-6.16-2.5,18.6,18.6,0,0,0-5.6.94v2.19a27.86,27.86,0,0,1,5.21-.72,5.45,5.45,0,0,1,4.26,1.62,5.76,5.76,0,0,1,1.35,4v3.78A1.1,1.1,0,0,1,244.6,116H229.79a2.85,2.85,0,0,0,.11-.79v-4.33a7.61,7.61,0,0,0-2.16-5.58,8.52,8.52,0,0,0-6.29-2.37q-7.26,0-11.7,7.55V95H207v21h-6.29a.88.88,0,0,1-.66-.33,1.27,1.27,0,0,1-.33-.91V102.44h-1.37l-1.4,1.11a8.52,8.52,0,0,0-3.48-.78,6.88,6.88,0,0,0-5.12,2.12,8,8,0,0,0-2.34,5.9,8.53,8.53,0,0,0,1.62,5.22,6.41,6.41,0,0,0,5.41,2.67,7.8,7.8,0,0,0,4.56-1.5,2.87,2.87,0,0,0,2.39,1.14h26.92a2.81,2.81,0,0,0,2.28-1.14h.1l.95,1.14h15.41a2.83,2.83,0,0,0,2.29-1.14h.09l.91,1.14h6.13a2.81,2.81,0,0,0,2.12-.95,3,3,0,0,0,.85-2.15V95ZM197,115.38a8.22,8.22,0,0,1-3.68,1A4.1,4.1,0,0,1,190,115a6.3,6.3,0,0,1-1.24-4.11,5.85,5.85,0,0,1,1.28-3.77,4.83,4.83,0,0,1,4-2,6.37,6.37,0,0,1,2.89.72Zm30.12-.61a1.08,1.08,0,0,1-1.2,1.24H209.75c1.54-4.22,3.58-7.22,6.09-9a9,9,0,0,1,5.22-1.7,6.72,6.72,0,0,1,4,1.14,4.77,4.77,0,0,1,2,4.15Z"/>
<path class="cls-2" d="M97,104.23a5.49,5.49,0,1,0-3.28,9.89,4.56,4.56,0,0,0,.75-.06,5.28,5.28,0,0,0,2.48-1,5.49,5.49,0,0,0,.05-8.83Zm-3.07,7.3h-.21a3,3,0,1,1,.21,0Z"/><rect class="cls-3" x="171.76" y="60.21" width="2.33" height="4.31" rx="1.16" transform="translate(51.36 200.27) rotate(-68.43)"/>
<path class="cls-2" d="M217.82,85.62l-1.69-.12a23.73,23.73,0,0,1,4.35-10.93l1.31,1A22,22,0,0,0,217.82,85.62Z"/></g></svg>