<svg xmlns="http://www.w3.org/2000/svg" viewBox="0 0 750 600"><defs><style>.cls-1{fill:#8a1348;}.cls-2{fill:#939393;}.cls-3{fill:#fff;}</style></defs><title>Artboard 5 copy 4</title><g id="Layer_3" data-name="Layer 3"><path class="cls-1" d="M221,365.88v6.61a.39.39,0,0,0,.13.33.35.35,0,0,0,.29.13h.52v1.88h-1.16a2.11,2.11,0,0,1-1.52-.68,3.72,3.72,0,0,1-4.83-.06,4.51,4.51,0,0,1-1.4-3.49,4.6,4.6,0,0,1,1.28-3.32,3.9,3.9,0,0,1,2.89-1.2,4.87,4.87,0,0,1,1.91.41l.79-.61Zm-2.24,2.37a3.53,3.53,0,0,0-1.23-.24,2.05,2.05,0,0,0-1.63.73,2.72,2.72,0,0,0-.65,1.88,2.77,2.77,0,0,0,.58,1.85,1.9,1.9,0,0,0,1.55.7,3.76,3.76,0,0,0,1.38-.29Z"/><path class="cls-1" d="M225.17,373v1.88h-3.4V373Z"/><path class="cls-1" d="M228.44,373v1.88H225V373Z"/><path class="cls-1" d="M231.71,373v1.88h-3.4V373Z"/><path class="cls-1" d="M235,373v1.88h-3.4V373Z"/><path class="cls-1" d="M238.24,373v1.88h-3.39V373Z"/><path class="cls-1" d="M241.51,373v1.88h-3.39V373Z"/><path class="cls-1" d="M244.78,373v1.88h-3.39V373Z"/><path class="cls-1" d="M248.05,373v1.88h-3.39V373Z"/><path class="cls-1" d="M251.32,373v1.88h-3.4V373Z"/><path class="cls-1" d="M254.59,373v1.88h-3.4V373Z"/><path class="cls-1" d="M257.86,373v1.88h-3.4V373Z"/><path class="cls-1" d="M261.13,373v1.88h-3.4V373Z"/><path class="cls-1" d="M264.4,373v1.88H261V373Z"/><path class="cls-1" d="M267.67,373v1.88h-3.4V373Z"/><path class="cls-1" d="M270.94,373v1.88h-3.4V373Z"/><path class="cls-1" d="M274.21,373v1.88h-3.4V373Z"/><path class="cls-1" d="M277.48,373v1.88h-3.4V373Z"/><path class="cls-1" d="M280.75,373v1.88h-3.4V373Z"/><path class="cls-1" d="M284,373v1.88h-3.4V373Z"/><path class="cls-1" d="M287.29,373v1.88h-3.4V373Z"/><path class="cls-1" d="M290.56,373v1.88h-3.4V373Z"/><path class="cls-1" d="M293.82,373v1.88h-3.39V373Z"/><path class="cls-1" d="M297.39,373a3.54,3.54,0,0,1-.59-1.05,4.82,4.82,0,0,1-.28-1.61,3.8,3.8,0,0,1,1.49-3.22,4.93,4.93,0,0,1,3.05-.91,7,7,0,0,1,2,.31v1.76a8.27,8.27,0,0,0-1.8-.24,2.22,2.22,0,0,0-2.51,2.52,2.61,2.61,0,0,0,.38,1.43,2.07,2.07,0,0,0,1.87,1h3.57v.74l-.92,1.14h-10V373Z"/><path class="cls-1" d="M310.52,374.83a3.92,3.92,0,0,1-3.18-1.38,4.4,4.4,0,0,1-1-2.9,4.35,4.35,0,0,1,1.16-3.22,4.28,4.28,0,0,1,3.1-1.17,4.19,4.19,0,0,1,2.39.67,3.17,3.17,0,0,1,1.32,2.72V373h.59v1.88h-.61a4.32,4.32,0,0,1-1.39,3.1,4.66,4.66,0,0,1-2.12,1.08,7,7,0,0,1-1.68.2l-.79,0h-.06l-.94-1.16v-.81a8.14,8.14,0,0,0,1.42.13c2,0,3.1-.84,3.29-2.51Zm1.58-5.28a1.45,1.45,0,0,0-1.47-1.52,1.85,1.85,0,0,0-1.49.66,2.8,2.8,0,0,0-.55,1.82,2.5,2.5,0,0,0,.61,1.78,2.12,2.12,0,0,0,1.65.66h1.25Z"/><path class="cls-1" d="M318.2,373v1.88h-3.4V373Z"/><path class="cls-1" d="M321.47,373v1.88h-3.4V373Z"/><path class="cls-1" d="M324.74,373v1.88h-3.4V373Z"/><path class="cls-1" d="M328,373v1.88h-3.4V373Z"/><path class="cls-1" d="M331.28,373v1.88h-3.4V373Z"/><path class="cls-1" d="M334.55,373v1.88h-3.4V373Z"/><path class="cls-1" d="M337.81,373v1.88h-3.39V373Z"/><path class="cls-1" d="M341.08,373v1.88h-3.39V373Z"/><path class="cls-1" d="M344.35,373v1.88H341V373Z"/><path class="cls-1" d="M347.62,373v1.88h-3.39V373Z"/><path class="cls-1" d="M351.19,373a3.84,3.84,0,0,1-.67-1.27,5.13,5.13,0,0,1-.2-1.39,4,4,0,0,1,.94-2.7,4.13,4.13,0,0,1,3.36-1.43,4,4,0,0,1,2.57.82,3.21,3.21,0,0,1,1.12,2.57v3.25a2,2,0,0,1-.49,1.35,1.89,1.89,0,0,1-1.49.68h-8.84V373Zm2-10.62a1.15,1.15,0,0,1,.84.35,1.19,1.19,0,0,1,.35.85,1.16,1.16,0,0,1-.35.83,1.2,1.2,0,0,1-1.67,0,1.16,1.16,0,0,1-.35-.83,1.19,1.19,0,0,1,.35-.85A1.14,1.14,0,0,1,353.23,362.33Zm2.84,7.22a1.56,1.56,0,0,0-.51-1.21,1.48,1.48,0,0,0-.94-.31,1.83,1.83,0,0,0-1.73.94,2.87,2.87,0,0,0-.34,1.48,2.45,2.45,0,0,0,.77,1.93A2.31,2.31,0,0,0,355,373h.66a.4.4,0,0,0,.46-.46Zm-.05-7.22a1.15,1.15,0,0,1,.84.35,1.19,1.19,0,0,1,.35.85,1.16,1.16,0,0,1-.35.83,1.2,1.2,0,0,1-1.67,0,1.16,1.16,0,0,1-.35-.83,1.19,1.19,0,0,1,.35-.85A1.14,1.14,0,0,1,356,362.33Z"/><path class="cls-1" d="M366.05,374.75a5.63,5.63,0,0,1-1.55.22,3.88,3.88,0,0,1-3.16-1.5,4.75,4.75,0,0,1-1-3,4.31,4.31,0,0,1,1.12-3.07,4.08,4.08,0,0,1,3.14-1.24,4,4,0,0,1,2.46.75,3,3,0,0,1,1.25,2.64v4.83a4.5,4.5,0,0,1-1.5,3.64,5,5,0,0,1-2.15,1,6.34,6.34,0,0,1-1.43.15l-.65,0-.9-1.12v-.79a7.75,7.75,0,0,0,1.16.09C364.82,377.34,365.89,376.48,366.05,374.75Zm0-5.2a1.44,1.44,0,0,0-.53-1.21,1.38,1.38,0,0,0-.94-.31,1.82,1.82,0,0,0-1.49.66,2.8,2.8,0,0,0-.55,1.82,2.73,2.73,0,0,0,.62,1.88,2.14,2.14,0,0,0,1.68.69,3.53,3.53,0,0,0,1.21-.22Z"/><path class="cls-1" d="M379.12,366.38v8a4.49,4.49,0,0,1-1.39,3.53,5,5,0,0,1-2.32,1.16,7.67,7.67,0,0,1-1.37.13l-.65,0-.9-1.12v-.79a7.49,7.49,0,0,0,1.14.09q3.25,0,3.25-3.16v-7.8Z"/><path class="cls-1" d="M385.57,374.83a3.92,3.92,0,0,1-3.18-1.38,4.4,4.4,0,0,1-1-2.9,4.35,4.35,0,0,1,1.16-3.22,4.28,4.28,0,0,1,3.1-1.17,4.19,4.19,0,0,1,2.39.67,3.17,3.17,0,0,1,1.32,2.72V373H390v1.88h-.61a4.32,4.32,0,0,1-1.39,3.1,4.66,4.66,0,0,1-2.12,1.08,7,7,0,0,1-1.68.2l-.79,0h-.06l-.94-1.16v-.81a8.14,8.14,0,0,0,1.42.13c2,0,3.1-.84,3.29-2.51Zm1.58-5.28a1.45,1.45,0,0,0-1.47-1.52,1.85,1.85,0,0,0-1.49.66,2.8,2.8,0,0,0-.55,1.82,2.5,2.5,0,0,0,.61,1.78,2.12,2.12,0,0,0,1.65.66h1.25Z"/><path class="cls-1" d="M393.25,373v1.88h-3.4V373Z"/><path class="cls-1" d="M396.52,373v1.88h-3.4V373Z"/><path class="cls-1" d="M399.79,373v1.88h-3.4V373Z"/><path class="cls-1" d="M403.06,373v1.88h-3.4V373Z"/><path class="cls-1" d="M406.33,373v1.88h-3.4V373Z"/><path class="cls-1" d="M409.6,373v1.88h-3.4V373Z"/><path class="cls-1" d="M412.86,373v1.88h-3.39V373Z"/><path class="cls-1" d="M416.13,373v1.88h-3.39V373Z"/><path class="cls-1" d="M419.4,373v1.88H416V373Z"/><path class="cls-1" d="M422.67,373v1.88h-3.39V373Z"/><path class="cls-1" d="M425.94,373v1.88h-3.39V373Z"/><path class="cls-1" d="M429.21,373v1.88h-3.4V373Z"/><path class="cls-1" d="M432.78,373a3.84,3.84,0,0,1-.67-1.27,5.13,5.13,0,0,1-.2-1.39,4,4,0,0,1,.94-2.7,4.13,4.13,0,0,1,3.36-1.43,4,4,0,0,1,2.57.82,3.21,3.21,0,0,1,1.12,2.57v3.25a2,2,0,0,1-.49,1.35,1.89,1.89,0,0,1-1.49.68h-8.84V373Zm4.88-3.4a1.56,1.56,0,0,0-.51-1.21,1.48,1.48,0,0,0-.94-.31,1.83,1.83,0,0,0-1.73.94,2.87,2.87,0,0,0-.34,1.48,2.45,2.45,0,0,0,.77,1.93,2.31,2.31,0,0,0,1.63.57h.66a.4.4,0,0,0,.46-.46Zm-1.45-7.22a1.18,1.18,0,0,1,1.19,1.2,1.15,1.15,0,0,1-.34.83,1.18,1.18,0,0,1-.85.34,1.16,1.16,0,0,1-1.17-1.17,1.18,1.18,0,0,1,.34-.85A1.16,1.16,0,0,1,436.21,362.33Z"/><path class="cls-1" d="M461,366.38v6.42a1.93,1.93,0,0,1-.47,1.31,1.88,1.88,0,0,1-1.51.72H448.77a3,3,0,0,1-2-.78,3.11,3.11,0,0,1-1.16-2.53v-2.9l1.14-.92h1.1v3.82a1.37,1.37,0,0,0,.44,1.05,1.43,1.43,0,0,0,1,.38h9.13a.4.4,0,0,0,.46-.46v-6.11Zm-9.13-.5a1.17,1.17,0,0,1,.85.35,1.15,1.15,0,0,1,.35.84,1.2,1.2,0,0,1-1.2,1.2,1.13,1.13,0,0,1-.83-.35,1.16,1.16,0,0,1-.34-.85,1.14,1.14,0,0,1,.34-.84A1.13,1.13,0,0,1,451.91,365.88Zm1.4-2.2a1,1,0,0,1,.77.32,1.06,1.06,0,0,1,.31.78,1.09,1.09,0,0,1-.31.78,1,1,0,0,1-.77.32,1.09,1.09,0,0,1-1.1-1.1,1.09,1.09,0,0,1,1.1-1.1Zm1.4,2.2a1.14,1.14,0,0,1,.82.35,1.11,1.11,0,0,1,.35.84,1.2,1.2,0,0,1-1.17,1.2,1.2,1.2,0,0,1-1.2-1.2,1.15,1.15,0,0,1,.35-.84A1.17,1.17,0,0,1,454.71,365.88Z"/><path class="cls-1" d="M464.9,366.27a7.85,7.85,0,0,1,1.45-.11,4.54,4.54,0,0,1,3.42,1.35,4.31,4.31,0,0,1,1.16,3.05v1.77c0,.28,0,.49,0,.62h.48v1.88h-.24l-.61-.76h-.06a2.27,2.27,0,0,1-.31.31,1.87,1.87,0,0,1-1.23.45h-5.89V373h5.18a.41.41,0,0,0,.46-.46v-1.71a2.72,2.72,0,0,0-.78-2,3,3,0,0,0-2.07-.78,4.28,4.28,0,0,0-.94.08Z"/><path class="cls-1" d="M474.65,373v1.88h-3.39V373Z"/><path class="cls-1" d="M477.92,373v1.88h-3.39V373Z"/><path class="cls-1" d="M481.19,373v1.88H477.8V373Z"/><path class="cls-1" d="M484.46,373v1.88h-3.4V373Z"/><path class="cls-1" d="M487.73,373v1.88h-3.4V373Z"/><path class="cls-1" d="M491,373v1.88h-3.4V373Z"/><path class="cls-1" d="M494.27,373v1.88h-3.4V373Z"/><path class="cls-1" d="M497.54,373v1.88h-3.4V373Z"/><path class="cls-1" d="M500.81,373v1.88h-3.4V373Z"/><path class="cls-1" d="M503.11,366.69a10.76,10.76,0,0,1,3.17-.53,4.76,4.76,0,0,1,3.58,1.39,4.29,4.29,0,0,1,1.24,3.16V373h.6v1.88h-.38l-.61-.76h0a1.94,1.94,0,0,1-1.56.76h-8.45V373h7.74a.41.41,0,0,0,.46-.46v-1.65a2.59,2.59,0,0,0-.84-2,3.13,3.13,0,0,0-2.2-.76,13.65,13.65,0,0,0-2.71.4Z"/><path class="cls-1" d="M517.1,361.67V372.8a1.92,1.92,0,0,1-.49,1.33,1.85,1.85,0,0,1-1.49.7h-3.55V373h2.83a.47.47,0,0,0,.35-.15.39.39,0,0,0,.13-.31V361.67Z"/><path class="cls-1" d="M521.88,361.67v12.7l-1.14.91h-1.1V361.67Z"/><path class="cls-2" d="M459.41,286.22a48.31,48.31,0,0,0,.25,5,1,1,0,0,0,1,.86h.09a1,1,0,0,0,.86-1.06c-.12-1.25-.18-2.52-.21-3.8h15.29c0,1.33,0,2.66.13,4a1,1,0,0,0,1,.9h.06a1,1,0,0,0,.9-1c-.08-1.27-.1-2.55-.12-3.84h28.34v4.31a1,1,0,0,0,1.93,0v-4.31h13.67a1,1,0,1,0,0-1.92H508.85v-12a68.55,68.55,0,0,0,26-5.26,66.41,66.41,0,0,1,2,11.19,1,1,0,0,0,1,.87h.1a1,1,0,0,0,.86-1.05,70.71,70.71,0,0,0-2.15-11.83,44.89,44.89,0,0,0,10.12-6.49,46.32,46.32,0,0,1,7.64,24.59h-3.6a1,1,0,1,0,0,1.92h3.6c0,1.28-.09,2.55-.22,3.8a1,1,0,0,0,.86,1.06h.1a1,1,0,0,0,1-.86c.16-1.64.25-3.31.25-5a48.18,48.18,0,0,0-8.55-27.45,1.32,1.32,0,0,0-.12-.2l-.05,0A48.82,48.82,0,0,0,533,244.76l-.14-.08a48.18,48.18,0,0,0-49.79,0,.9.9,0,0,0-.49.3,48.54,48.54,0,0,0-14.05,13,.94.94,0,0,0-.91,1.3c-.47.7-.94,1.41-1.37,2.13a1,1,0,1,0,1.65,1c.36-.59.74-1.16,1.12-1.73,8.93,7.73,22.9,12.38,37.92,12.57v12H478.57c0-1.67.08-3.33.21-5a1,1,0,0,0-.88-1,1,1,0,0,0-1,.89c-.13,1.68-.2,3.39-.22,5.11H461.37a49.58,49.58,0,0,1,.4-5.46,1,1,0,0,0-.82-1.08,1,1,0,0,0-1.09.82A49.64,49.64,0,0,0,459.41,286.22ZM506.92,249a71.4,71.4,0,0,1-15-1.76c4.41-4.54,9.57-7.19,15-7.47Zm1.93-9.22c5.42.29,10.54,3,14.9,7.48a71.38,71.38,0,0,1-14.9,1.74Zm-1.93,31.57a66.61,66.61,0,0,1-25.48-5.19,48.15,48.15,0,0,1,9-17.3,73.28,73.28,0,0,0,16.45,2.07Zm-23.45-24.65c1.61.6,3.26,1.15,5,1.63a50.36,50.36,0,0,0-8.76,17,42.08,42.08,0,0,1-9.58-6.23A46.49,46.49,0,0,1,483.47,246.66Zm13-5.52a30.46,30.46,0,0,0-6.6,5.53c-1.43-.38-2.82-.81-4.19-1.28A46.7,46.7,0,0,1,496.43,241.14Zm23,0a46.23,46.23,0,0,1,10.75,4.25c-1.35.47-2.72.89-4.13,1.27A30.08,30.08,0,0,0,519.43,241.12Zm16.68,24.17a50.19,50.19,0,0,0-8.71-17q2.55-.72,5-1.63a47,47,0,0,1,13.32,12.44A42.8,42.8,0,0,1,536.11,265.29Zm-27.26,6V250.89a73.32,73.32,0,0,0,16.39-2.06,48.5,48.5,0,0,1,9.06,17.3A66.57,66.57,0,0,1,508.85,271.31Z"/><path class="cls-2" d="M507.88,293.14a1.65,1.65,0,0,1-1.65-1.65v-3.62h-27c0,1,0,2.08.11,3.1a1.66,1.66,0,0,1-1.54,1.76h0a1.69,1.69,0,0,1-1.75-1.54c-.07-1.1-.1-2.21-.12-3.32h-13.9c0,1.11.1,2.11.19,3a1.65,1.65,0,0,1-1.47,1.81,1.61,1.61,0,0,1-1.82-1.48c-.16-1.67-.25-3.36-.25-5a50.76,50.76,0,0,1,.46-6.77,1.62,1.62,0,0,1,.64-1.09,1.61,1.61,0,0,1,1.23-.32,1.59,1.59,0,0,1,1.08.64,1.61,1.61,0,0,1,.32,1.22,43.81,43.81,0,0,0-.37,4.67H476c0-1.61.1-3.09.22-4.48a1.65,1.65,0,0,1,1.77-1.51,1.64,1.64,0,0,1,1.52,1.78c-.1,1.31-.17,2.69-.2,4.21h27V273.92c-14.66-.32-28.1-4.75-37.09-12.22q-.34.53-.66,1.05a1.65,1.65,0,1,1-2.84-1.69c.39-.65.8-1.28,1.21-1.91a1.66,1.66,0,0,1,.44-1.35,1.6,1.6,0,0,1,.84-.47,49,49,0,0,1,14-12.91,1.62,1.62,0,0,1,.65-.4,49,49,0,0,1,65.38,14l0,0a1.18,1.18,0,0,1,.2.3,48.81,48.81,0,0,1,8.66,27.82,49.79,49.79,0,0,1-.26,5,1.63,1.63,0,0,1-1.64,1.49,1.69,1.69,0,0,1-1.64-1.82c.09-.93.16-1.93.19-3h-2.89a1.65,1.65,0,0,1,0-3.3h2.89a45.61,45.61,0,0,0-7.08-22.86,45.64,45.64,0,0,1-9.16,5.82,71.29,71.29,0,0,1,2,11.39,1.65,1.65,0,0,1-.37,1.21,1.69,1.69,0,0,1-1.12.6h0a1.68,1.68,0,0,1-1.78-1.49,68,68,0,0,0-1.82-10.32,69.63,69.63,0,0,1-24.84,5v10.65h13a1.65,1.65,0,0,1,0,3.3h-13v3.62A1.66,1.66,0,0,1,507.88,293.14Zm-30-6.64h29.73v5c0,.3.55.3.55,0v-5h14.36a.28.28,0,0,0,.27-.28.27.27,0,0,0-.27-.27H508.16V272.56h.68a68,68,0,0,0,25.73-5.2l.73-.32.21.77a68.62,68.62,0,0,1,2.06,11.31.27.27,0,0,0,.27.25.33.33,0,0,0,.28-.31A70.63,70.63,0,0,0,536,267.34l-.15-.56.52-.24a44.29,44.29,0,0,0,10-6.39l.59-.51.43.65a47.11,47.11,0,0,1,7.76,24.95V286h-4.3a.28.28,0,0,0-.28.27.29.29,0,0,0,.28.28h4.3v.7c0,1.42-.1,2.68-.22,3.85a.26.26,0,0,0,.24.3h0a.28.28,0,0,0,.3-.24,47.69,47.69,0,0,0-8.18-31.95l0,0-.14-.12a48.7,48.7,0,0,0-14.52-13.66,47.52,47.52,0,0,0-49.22-.1l-.48.29a47.84,47.84,0,0,0-13.85,12.84l-.21.3h-.37s-.14,0-.2.08a.25.25,0,0,0-.05.28l.13.34-.2.3c-.47.69-.92,1.38-1.35,2.1a.26.26,0,0,0,0,.2.28.28,0,0,0,.12.17.29.29,0,0,0,.39-.09c.3-.51.63-1,1-1.51l.59-.9.6.51c8.88,7.69,22.54,12.21,37.48,12.4h.68V286H477.87v-.7c0-1.82.09-3.46.22-5a.28.28,0,0,0-.25-.3.29.29,0,0,0-.3.25c-.13,1.56-.2,3.21-.22,5.07V286H460.67v-.71a48.57,48.57,0,0,1,.41-5.53.3.3,0,0,0,0-.2.31.31,0,0,0-.18-.11.34.34,0,0,0-.21.05.3.3,0,0,0-.1.18,48.21,48.21,0,0,0-.45,6.59c0,1.62.08,3.26.24,4.89a.29.29,0,0,0,.28.24.27.27,0,0,0,.27-.3c-.12-1.17-.19-2.43-.22-3.85v-.7h16.67v.68c0,1.31,0,2.63.13,3.92a.27.27,0,0,0,.27.25.28.28,0,0,0,.28-.29c-.09-1.27-.11-2.57-.13-3.87Zm69.64-27.67-.14.21.4-.32ZM508.16,272v-21.8h.68a71.63,71.63,0,0,0,16.23-2l.42-.1.27.32a49.39,49.39,0,0,1,9.2,17.55l.18.58-.56.25A67.14,67.14,0,0,1,508.86,272Zm1.38-20.45v19.05a65.76,65.76,0,0,0,23.92-4.87A48.07,48.07,0,0,0,525,249.6,72.85,72.85,0,0,1,509.54,251.56ZM507.61,272h-.7a67,67,0,0,1-25.74-5.25l-.56-.24.18-.59A48.84,48.84,0,0,1,490,248.37l.27-.32.42.1a72.15,72.15,0,0,0,16.29,2h.68Zm-25.32-6.28a65.62,65.62,0,0,0,23.94,4.88V251.56a73.33,73.33,0,0,1-15.51-2A47.63,47.63,0,0,0,482.29,265.73Zm-2.19.54-.72-.35a43.28,43.28,0,0,1-9.74-6.33l-.47-.41.37-.51a47.15,47.15,0,0,1,13.56-12.6l.29-.17.32.11c1.61.61,3.26,1.15,4.91,1.62l1,.28-.66.81a50.32,50.32,0,0,0-8.63,16.79ZM471,259a41.66,41.66,0,0,0,8.24,5.36,52,52,0,0,1,8-15.67c-1.25-.37-2.49-.79-3.72-1.24A45.66,45.66,0,0,0,471,259Zm64.65,7.29-.23-.77a50.07,50.07,0,0,0-8.58-16.79l-.66-.81,1-.29c1.65-.46,3.29-1,4.89-1.6l.31-.12.29.18a47.41,47.41,0,0,1,13.52,12.62l.36.51-.47.41a43.47,43.47,0,0,1-9.71,6.31Zm-7.1-17.62a51.83,51.83,0,0,1,7.95,15.68,41.82,41.82,0,0,0,8.21-5.35,45.93,45.93,0,0,0-12.47-11.56C531.06,247.85,529.82,248.27,528.58,248.64Zm-21,1h-.7a71.83,71.83,0,0,1-15.12-1.78l-1.19-.28.85-.87c4.59-4.73,9.93-7.39,15.43-7.68l.73,0Zm-14.28-2.86a70.57,70.57,0,0,0,12.9,1.46v-7.79A21.81,21.81,0,0,0,493.33,246.8Zm14.83,2.86V239l.72,0c5.45.29,10.76,2.95,15.36,7.69l.86.87-1.2.28a71.81,71.81,0,0,1-15,1.76Zm1.38-9.18v7.78a70.67,70.67,0,0,0,12.82-1.45A21.74,21.74,0,0,0,509.54,240.48Zm-19.48,7-.41-.1c-1.4-.38-2.83-.81-4.23-1.3l-1.48-.51,1.37-.74a47.37,47.37,0,0,1,10.95-4.32l4.46-1.14-3.93,2.39a30,30,0,0,0-6.45,5.41Zm-2.66-2.19c.74.23,1.48.45,2.21.65a32.78,32.78,0,0,1,3-2.89A45.48,45.48,0,0,0,487.4,245.25Zm38.42,2.17-.28-.31a29.59,29.59,0,0,0-6.47-5.4l-4-2.41,4.5,1.15a47.44,47.44,0,0,1,10.91,4.32l1.36.74-1.47.51c-1.41.49-2.82.92-4.18,1.29ZM523.25,243a31.15,31.15,0,0,1,3,2.86c.71-.2,1.43-.41,2.15-.64A43.72,43.72,0,0,0,523.25,243Z"/><path class="cls-2" d="M240,302a3.09,3.09,0,0,0,3.16-3.16,3,3,0,0,0-.9-2.18,3.13,3.13,0,0,0-2.26-.92,3,3,0,0,0-2.19.92,3,3,0,0,0-.92,2.18,3.06,3.06,0,0,0,.92,2.25A3,3,0,0,0,240,302Z"/><path class="cls-2" d="M237.89,292.08a3,3,0,0,0,4.23,0s0,0,.07-.05a3.06,3.06,0,0,0,.92-2.24,3,3,0,0,0-.92-2.19,3.05,3.05,0,0,0-4.37,0,3,3,0,0,0-.92,2.19,3.06,3.06,0,0,0,.92,2.24S237.87,292.08,237.89,292.08Z"/><path class="cls-1" d="M287,306.41a3,3,0,0,0,2.24-.92,3,3,0,0,0,.92-2.24,3,3,0,0,0-.92-2.18,3.06,3.06,0,0,0-2.24-.92,3,3,0,0,0-2.19.92,2.92,2.92,0,0,0-.91,2.18,3,3,0,0,0,.91,2.24A2.92,2.92,0,0,0,287,306.41Z"/><path class="cls-1" d="M375.84,336.3a2.22,2.22,0,0,1-.63,1.63,2.3,2.3,0,0,1-1.78.77H361.55a6.71,6.71,0,0,0,.18-1.52V297.87h-5.38V336.3a2.43,2.43,0,0,1-2.41,2.4H343.18a6.23,6.23,0,0,0,.2-1.52v-8.05q0-6.75-3.55-10.95c-2.75-3.25-6.74-4.86-11.95-4.86a36.16,36.16,0,0,0-10.9,1.83v4.25a55.68,55.68,0,0,1,10.13-1.4c3.63,0,6.39,1.05,8.3,3.16A11.17,11.17,0,0,1,338,329v7.35a2.13,2.13,0,0,1-2.41,2.4H306.86a6.66,6.66,0,0,0,.19-1.52v-8.42a14.78,14.78,0,0,0-4.19-10.83c-3.07-3.07-7.15-4.61-12.21-4.61q-14.11,0-22.73,14.67V297.87h-5.3V338.7H250.4a1.73,1.73,0,0,1-1.27-.64,2.39,2.39,0,0,1-.64-1.76V312.36h-.11a7.93,7.93,0,0,0-7.84-6.81h-6.8a.21.21,0,0,1-.22-.22,5.22,5.22,0,0,0-5.22-5.22H214.69a5.23,5.23,0,0,0-5.21,5.22.22.22,0,0,1-.22.22h-6.8a8,8,0,0,0-7.94,7.95v21.75a8,8,0,0,0,7.94,7.93h38.08a7.92,7.92,0,0,0,4.55-1.45,5.46,5.46,0,0,0,3.91,1.45h52.28a5.45,5.45,0,0,0,4.43-2.2h.2l1.84,2.2h29.94a5.47,5.47,0,0,0,4.42-2.2h.19l1.78,2.2H356a5.38,5.38,0,0,0,4.45-2.2h.18l2.09,2.2h12.79a5.36,5.36,0,0,0,4.24-2,5.88,5.88,0,0,0,1.51-4V314.07h-5.38Zm-151.17,1.89H202.46a3,3,0,0,1-2.94-2.94V313.5a2.94,2.94,0,0,1,2.94-2.94h6.8a5.22,5.22,0,0,0,5.21-5.23.24.24,0,0,1,.22-.22H228.3a.24.24,0,0,1,.22.22,5.23,5.23,0,0,0,5.22,5.23h6.8a2.94,2.94,0,0,1,2.94,2.94v21.75a2.86,2.86,0,0,1-.35,1.36,2.93,2.93,0,0,1-2.59,1.58H224.67Zm76.94-1.89a2.11,2.11,0,0,1-2.35,2.4H267.92q4.5-12.29,11.85-17.47a17.41,17.41,0,0,1,10.12-3.3,12.94,12.94,0,0,1,7.79,2.22,9.27,9.27,0,0,1,3.93,8Z"/><path class="cls-1" d="M376.92,349.78a2.92,2.92,0,0,0-2.19.92,3,3,0,0,0-.91,2.18,3.07,3.07,0,0,0,.91,2.24,3.07,3.07,0,0,0,4.38,0,3.07,3.07,0,0,0,.91-2.24,3,3,0,0,0-.91-2.18A2.93,2.93,0,0,0,376.92,349.78Z"/><path class="cls-1" d="M424.2,306.41a3.14,3.14,0,0,0,3.16-3.16,2.93,2.93,0,0,0-.92-2.18,3.06,3.06,0,0,0-2.24-.92,3.14,3.14,0,0,0-3.11,3.1,3.08,3.08,0,0,0,.92,2.24A2.92,2.92,0,0,0,424.2,306.41Z"/><path class="cls-1" d="M416.54,306.41a3,3,0,0,0,2.19-.92,3.07,3.07,0,0,0,.91-2.24,3,3,0,0,0-.91-2.18,3,3,0,0,0-2.19-.92,3.12,3.12,0,0,0-3.1,3.1,3.07,3.07,0,0,0,.91,2.24A2.92,2.92,0,0,0,416.54,306.41Z"/><path class="cls-1" d="M465.84,306.41a3,3,0,0,0,2.26-.92,3.08,3.08,0,0,0,.92-2.24,3,3,0,0,0-.92-2.18,3.1,3.1,0,0,0-2.26-.92,3.12,3.12,0,0,0-3.1,3.1,3.07,3.07,0,0,0,.91,2.24A3,3,0,0,0,465.84,306.41Z"/><path class="cls-1" d="M535.22,297.87V336.3a2.5,2.5,0,0,1-.57,1.57,2.16,2.16,0,0,1-1.84.83H522.05a6.71,6.71,0,0,0,.18-1.52v-8.05q0-6.75-3.53-10.95c-2.75-3.25-6.74-4.86-12-4.86a36,36,0,0,0-10.88,1.83v4.25A55.49,55.49,0,0,1,506,318c3.62,0,6.4,1.05,8.29,3.16a11.18,11.18,0,0,1,2.61,7.79v7.35a2.13,2.13,0,0,1-2.41,2.4H485.71a5.69,5.69,0,0,0,.21-1.52v-8.42a14.78,14.78,0,0,0-4.19-10.83c-3.09-3.07-7.15-4.61-12.22-4.61q-14.1,0-22.72,14.67V297.87h-5.31V338.7H429.27a1.66,1.66,0,0,1-1.27-.64,2.39,2.39,0,0,1-.64-1.76V312.36H424.7L422,314.51a16.61,16.61,0,0,0-6.76-1.51,13.34,13.34,0,0,0-9.94,4.12,15.46,15.46,0,0,0-4.56,11.44,16.48,16.48,0,0,0,3.16,10.14,12.43,12.43,0,0,0,10.51,5.18,15.06,15.06,0,0,0,8.85-2.9,5.55,5.55,0,0,0,4.63,2.2h52.28a5.44,5.44,0,0,0,4.42-2.2h.21l1.83,2.2h29.93A5.48,5.48,0,0,0,521,341h.18l1.77,2.2h11.9a5.38,5.38,0,0,0,4.11-1.83,5.73,5.73,0,0,0,1.66-4.17V297.87ZM422,337.49a16.09,16.09,0,0,1-7.15,1.84,8,8,0,0,1-6.34-2.67c-1.59-1.93-2.4-4.59-2.4-8a11.31,11.31,0,0,1,2.48-7.33,9.42,9.42,0,0,1,7.79-3.8A12.33,12.33,0,0,1,422,319Zm58.48-1.19a2.09,2.09,0,0,1-2.33,2.4H446.79q4.5-12.29,11.83-17.47a17.47,17.47,0,0,1,10.14-3.3,13,13,0,0,1,7.79,2.22,9.25,9.25,0,0,1,3.91,8Z"/><path class="cls-2" d="M227.86,315.83a10.55,10.55,0,0,0-6.35-2.11,10.66,10.66,0,1,0,0,21.31,10,10,0,0,0,1.45-.11,10.34,10.34,0,0,0,4.81-1.95,10.61,10.61,0,0,0,4.39-8.6,10.76,10.76,0,0,0-4.3-8.54Zm-6,14.18a2.61,2.61,0,0,1-.4,0,5.66,5.66,0,1,1,0-11.31,5.53,5.53,0,0,1,2.9.81,5.64,5.64,0,0,1-2.5,10.48Z"/><rect class="cls-3" x="373.03" y="230.36" width="4.52" height="8.38" rx="1.23" transform="translate(19.22 497.35) rotate(-68.43)"/><path class="cls-2" d="M462.47,279.7l-3.29-.24a46.07,46.07,0,0,1,8.44-21.23l2.56,1.95A42.54,42.54,0,0,0,462.47,279.7Z"/></g></svg>