<svg xmlns="http://www.w3.org/2000/svg" viewBox="0 0 520 400"><defs><style>.cls-1{fill:#8a1348;}.cls-2{fill:#939393;}.cls-3{fill:#fff;}</style></defs><title>Artboard 5 copy 3</title><g id="Layer_3" data-name="Layer 3"><path class="cls-1" d="M105.17,251v6.61a.42.42,0,0,0,.13.33.35.35,0,0,0,.3.13h.51v1.87H105a2.1,2.1,0,0,1-1.52-.67,3.61,3.61,0,0,1-2.33.86,3.68,3.68,0,0,1-2.5-.92,5,5,0,0,1-.11-6.81,3.86,3.86,0,0,1,2.88-1.2,4.87,4.87,0,0,1,1.91.41l.79-.61Zm-2.24,2.37a3.53,3.53,0,0,0-1.23-.24,2.07,2.07,0,0,0-1.63.73,2.72,2.72,0,0,0-.65,1.88,2.82,2.82,0,0,0,.58,1.85,1.91,1.91,0,0,0,1.55.7,3.72,3.72,0,0,0,1.38-.29Z"/><path class="cls-1" d="M109.38,258.07v1.87H106v-1.87Z"/><path class="cls-1" d="M112.65,258.07v1.87h-3.4v-1.87Z"/><path class="cls-1" d="M115.92,258.07v1.87h-3.4v-1.87Z"/><path class="cls-1" d="M119.19,258.07v1.87h-3.4v-1.87Z"/><path class="cls-1" d="M122.46,258.07v1.87h-3.4v-1.87Z"/><path class="cls-1" d="M125.73,258.07v1.87h-3.4v-1.87Z"/><path class="cls-1" d="M129,258.07v1.87h-3.4v-1.87Z"/><path class="cls-1" d="M132.27,258.07v1.87h-3.4v-1.87Z"/><path class="cls-1" d="M135.53,258.07v1.87h-3.39v-1.87Z"/><path class="cls-1" d="M138.8,258.07v1.87h-3.39v-1.87Z"/><path class="cls-1" d="M142.07,258.07v1.87h-3.39v-1.87Z"/><path class="cls-1" d="M145.34,258.07v1.87h-3.4v-1.87Z"/><path class="cls-1" d="M148.61,258.07v1.87h-3.4v-1.87Z"/><path class="cls-1" d="M151.88,258.07v1.87h-3.4v-1.87Z"/><path class="cls-1" d="M155.15,258.07v1.87h-3.4v-1.87Z"/><path class="cls-1" d="M158.42,258.07v1.87H155v-1.87Z"/><path class="cls-1" d="M161.69,258.07v1.87h-3.4v-1.87Z"/><path class="cls-1" d="M165,258.07v1.87h-3.4v-1.87Z"/><path class="cls-1" d="M168.23,258.07v1.87h-3.4v-1.87Z"/><path class="cls-1" d="M171.5,258.07v1.87h-3.4v-1.87Z"/><path class="cls-1" d="M174.77,258.07v1.87h-3.4v-1.87Z"/><path class="cls-1" d="M178,258.07v1.87h-3.4v-1.87Z"/><path class="cls-1" d="M181.6,258.07A3.77,3.77,0,0,1,181,257a4.82,4.82,0,0,1-.27-1.61,3.77,3.77,0,0,1,1.49-3.22,4.88,4.88,0,0,1,3-.91,6.94,6.94,0,0,1,2,.31v1.76a8.12,8.12,0,0,0-1.79-.24,2.23,2.23,0,0,0-2.52,2.52,2.7,2.7,0,0,0,.38,1.43,2.08,2.08,0,0,0,1.88,1h3.56v.74l-.92,1.13h-10v-1.87Z"/><path class="cls-1" d="M194.73,259.94a3.91,3.91,0,0,1-3.17-1.37,4.41,4.41,0,0,1-1-2.9,4.35,4.35,0,0,1,1.16-3.22,4.28,4.28,0,0,1,3.1-1.17,4.19,4.19,0,0,1,2.39.67,3.17,3.17,0,0,1,1.32,2.72v3.4h.59v1.87h-.6a4.37,4.37,0,0,1-1.4,3.11,4.67,4.67,0,0,1-2.11,1.08,7.15,7.15,0,0,1-1.69.2l-.79,0h-.06l-.93-1.16v-.81a8,8,0,0,0,1.41.13c2,0,3.1-.84,3.29-2.52Zm1.58-5.27a1.43,1.43,0,0,0-1.47-1.52,1.82,1.82,0,0,0-1.48.66,2.75,2.75,0,0,0-.56,1.82,2.54,2.54,0,0,0,.61,1.78,2.15,2.15,0,0,0,1.65.66h1.25Z"/><path class="cls-1" d="M202.41,258.07v1.87H199v-1.87Z"/><path class="cls-1" d="M205.68,258.07v1.87h-3.4v-1.87Z"/><path class="cls-1" d="M209,258.07v1.87h-3.4v-1.87Z"/><path class="cls-1" d="M212.22,258.07v1.87h-3.4v-1.87Z"/><path class="cls-1" d="M215.49,258.07v1.87h-3.4v-1.87Z"/><path class="cls-1" d="M218.76,258.07v1.87h-3.4v-1.87Z"/><path class="cls-1" d="M222,258.07v1.87h-3.4v-1.87Z"/><path class="cls-1" d="M225.3,258.07v1.87h-3.4v-1.87Z"/><path class="cls-1" d="M228.57,258.07v1.87h-3.4v-1.87Z"/><path class="cls-1" d="M231.84,258.07v1.87h-3.4v-1.87Z"/><path class="cls-1" d="M235.4,258.07a4,4,0,0,1-.66-1.27,4.78,4.78,0,0,1-.21-1.39,4,4,0,0,1,.94-2.7,4.13,4.13,0,0,1,3.36-1.43,4,4,0,0,1,2.58.82,3.23,3.23,0,0,1,1.11,2.57v3.25a2,2,0,0,1-.49,1.35,1.88,1.88,0,0,1-1.49.67h-8.83v-1.87Zm2-10.62a1.2,1.2,0,0,1,1.19,1.2,1.12,1.12,0,0,1-.35.83,1.2,1.2,0,0,1-1.67,0,1.16,1.16,0,0,1-.35-.83,1.19,1.19,0,0,1,.35-.85A1.14,1.14,0,0,1,237.44,247.45Zm2.84,7.22a1.56,1.56,0,0,0-.51-1.21,1.48,1.48,0,0,0-.94-.31,1.82,1.82,0,0,0-1.72.94,2.77,2.77,0,0,0-.35,1.48,2.48,2.48,0,0,0,.77,1.93,2.31,2.31,0,0,0,1.63.57h.67a.4.4,0,0,0,.45-.46Zm-.05-7.22a1.2,1.2,0,0,1,1.19,1.2,1.12,1.12,0,0,1-.35.83,1.2,1.2,0,0,1-1.67,0,1.16,1.16,0,0,1-.35-.83,1.19,1.19,0,0,1,.35-.85A1.16,1.16,0,0,1,240.23,247.45Z"/><path class="cls-1" d="M250.26,259.87a5.62,5.62,0,0,1-1.54.22,3.86,3.86,0,0,1-3.16-1.5,4.76,4.76,0,0,1-1-3,4.27,4.27,0,0,1,1.13-3.07,4.06,4.06,0,0,1,3.14-1.24,4,4,0,0,1,2.46.75,3.06,3.06,0,0,1,1.25,2.64v4.83a4.5,4.5,0,0,1-1.51,3.64,5,5,0,0,1-2.15,1,6.34,6.34,0,0,1-1.43.15l-.64,0-.9-1.12v-.79a7.52,7.52,0,0,0,1.15.09C249,262.46,250.1,261.6,250.26,259.87Zm0-5.2a1.45,1.45,0,0,0-.54-1.21,1.38,1.38,0,0,0-.93-.31,1.83,1.83,0,0,0-1.5.66,2.8,2.8,0,0,0-.54,1.82,2.73,2.73,0,0,0,.61,1.88,2.14,2.14,0,0,0,1.68.69,3.62,3.62,0,0,0,1.22-.22Z"/><path class="cls-1" d="M263.34,251.5v8a4.49,4.49,0,0,1-1.4,3.53,5.05,5.05,0,0,1-2.31,1.16,7.69,7.69,0,0,1-1.38.13l-.64,0-.91-1.12v-.79a7.7,7.7,0,0,0,1.14.09q3.26,0,3.26-3.16v-7.8Z"/><path class="cls-1" d="M269.78,259.94a3.91,3.91,0,0,1-3.17-1.37,4.41,4.41,0,0,1-1-2.9,4.35,4.35,0,0,1,1.16-3.22,4.28,4.28,0,0,1,3.1-1.17,4.19,4.19,0,0,1,2.39.67,3.17,3.17,0,0,1,1.32,2.72v3.4h.59v1.87h-.6a4.37,4.37,0,0,1-1.4,3.11,4.67,4.67,0,0,1-2.11,1.08,7.15,7.15,0,0,1-1.69.2l-.79,0h-.06l-.93-1.16v-.81a8,8,0,0,0,1.41.13c2,0,3.1-.84,3.29-2.52Zm1.58-5.27a1.43,1.43,0,0,0-1.47-1.52,1.82,1.82,0,0,0-1.48.66,2.75,2.75,0,0,0-.55,1.82,2.54,2.54,0,0,0,.6,1.78,2.13,2.13,0,0,0,1.65.66h1.25Z"/><path class="cls-1" d="M277.46,258.07v1.87h-3.4v-1.87Z"/><path class="cls-1" d="M280.73,258.07v1.87h-3.4v-1.87Z"/><path class="cls-1" d="M284,258.07v1.87h-3.4v-1.87Z"/><path class="cls-1" d="M287.27,258.07v1.87h-3.4v-1.87Z"/><path class="cls-1" d="M290.54,258.07v1.87h-3.4v-1.87Z"/><path class="cls-1" d="M293.81,258.07v1.87h-3.4v-1.87Z"/><path class="cls-1" d="M297.08,258.07v1.87h-3.4v-1.87Z"/><path class="cls-1" d="M300.35,258.07v1.87H297v-1.87Z"/><path class="cls-1" d="M303.62,258.07v1.87h-3.4v-1.87Z"/><path class="cls-1" d="M306.89,258.07v1.87h-3.4v-1.87Z"/><path class="cls-1" d="M310.16,258.07v1.87h-3.4v-1.87Z"/><path class="cls-1" d="M313.43,258.07v1.87H310v-1.87Z"/><path class="cls-1" d="M317,258.07a4,4,0,0,1-.66-1.27,4.78,4.78,0,0,1-.21-1.39,4,4,0,0,1,.94-2.7,4.13,4.13,0,0,1,3.36-1.43,4,4,0,0,1,2.58.82,3.23,3.23,0,0,1,1.11,2.57v3.25a2,2,0,0,1-.49,1.35,1.88,1.88,0,0,1-1.49.67H313.3v-1.87Zm4.88-3.4a1.56,1.56,0,0,0-.51-1.21,1.48,1.48,0,0,0-.94-.31,1.82,1.82,0,0,0-1.72.94,2.77,2.77,0,0,0-.35,1.48,2.48,2.48,0,0,0,.77,1.93,2.31,2.31,0,0,0,1.63.57h.67a.4.4,0,0,0,.45-.46Zm-1.45-7.22a1.2,1.2,0,0,1,1.2,1.2,1.16,1.16,0,0,1-.35.83,1.18,1.18,0,0,1-.85.34,1.18,1.18,0,0,1-1.17-1.17,1.15,1.15,0,0,1,.35-.85A1.14,1.14,0,0,1,320.42,247.45Z"/><path class="cls-1" d="M345.26,251.5v6.42a1.89,1.89,0,0,1-.48,1.31,1.86,1.86,0,0,1-1.51.71H333a3,3,0,0,1-2.06-.77,3.14,3.14,0,0,1-1.16-2.53v-2.9l1.14-.92H332v3.82a1.37,1.37,0,0,0,.44,1.05,1.44,1.44,0,0,0,1,.38h9.13a.41.41,0,0,0,.46-.46V251.5Zm-9.13-.5a1.2,1.2,0,0,1,1.19,1.19,1.17,1.17,0,0,1-.35.85,1.18,1.18,0,0,1-1.68,0,1.16,1.16,0,0,1-.34-.85,1.18,1.18,0,0,1,1.18-1.19Zm1.39-2.2a1,1,0,0,1,.77.32,1.06,1.06,0,0,1,.32.78,1.1,1.1,0,0,1-.32.78,1,1,0,0,1-.77.32,1.09,1.09,0,0,1-1.1-1.1,1.09,1.09,0,0,1,1.1-1.1Zm1.4,2.2a1.16,1.16,0,0,1,.83.35,1.14,1.14,0,0,1,.34.84,1.18,1.18,0,0,1-1.17,1.2,1.19,1.19,0,0,1-.85-.35,1.17,1.17,0,0,1-.35-.85,1.15,1.15,0,0,1,.35-.84A1.19,1.19,0,0,1,338.92,251Z"/><path class="cls-1" d="M349.11,251.39a7.85,7.85,0,0,1,1.45-.11,4.54,4.54,0,0,1,3.42,1.35,4.31,4.31,0,0,1,1.16,3.05v1.77c0,.28,0,.49,0,.62h.48v1.87h-.24l-.61-.75h-.05a2.34,2.34,0,0,1-.32.31,1.86,1.86,0,0,1-1.23.44h-5.89v-1.87h5.18a.41.41,0,0,0,.46-.46V255.9a2.75,2.75,0,0,0-.77-2,3,3,0,0,0-2.08-.78,4.28,4.28,0,0,0-.94.08Z"/><path class="cls-1" d="M358.87,258.07v1.87h-3.4v-1.87Z"/><path class="cls-1" d="M362.14,258.07v1.87h-3.4v-1.87Z"/><path class="cls-1" d="M365.41,258.07v1.87H362v-1.87Z"/><path class="cls-1" d="M368.68,258.07v1.87h-3.4v-1.87Z"/><path class="cls-1" d="M371.94,258.07v1.87h-3.39v-1.87Z"/><path class="cls-1" d="M375.21,258.07v1.87h-3.39v-1.87Z"/><path class="cls-1" d="M378.48,258.07v1.87h-3.39v-1.87Z"/><path class="cls-1" d="M381.75,258.07v1.87h-3.39v-1.87Z"/><path class="cls-1" d="M385,258.07v1.87h-3.4v-1.87Z"/><path class="cls-1" d="M387.32,251.81a10.77,10.77,0,0,1,3.18-.53,4.78,4.78,0,0,1,3.58,1.39,4.32,4.32,0,0,1,1.23,3.16v2.24h.6v1.87h-.38l-.61-.75h0a2,2,0,0,1-1.57.75h-8.45v-1.87h7.74a.41.41,0,0,0,.46-.46V256a2.59,2.59,0,0,0-.84-2,3.12,3.12,0,0,0-2.19-.76,13.73,13.73,0,0,0-2.72.4Z"/><path class="cls-1" d="M401.31,246.79v11.13a1.92,1.92,0,0,1-.49,1.33,1.84,1.84,0,0,1-1.49.69h-3.55v-1.87h2.83a.47.47,0,0,0,.35-.15.39.39,0,0,0,.13-.31V246.79Z"/><path class="cls-1" d="M406.09,246.79v12.7l-1.14.91h-1.1V246.79Z"/><path class="cls-2" d="M343.62,171.34c0,1.65.09,3.32.25,5a1,1,0,0,0,1,.86h.1a1,1,0,0,0,.86-1.06c-.13-1.25-.19-2.52-.22-3.8h15.3c0,1.33,0,2.66.12,4a1,1,0,0,0,1,.9H362a1,1,0,0,0,.9-1c-.09-1.27-.11-2.55-.13-3.84h28.34v4.31a1,1,0,0,0,1.93,0V172.3h13.67a1,1,0,1,0,0-1.92H393.06v-12a68.55,68.55,0,0,0,26-5.26,67.42,67.42,0,0,1,2.05,11.19,1,1,0,0,0,.95.87h.1a1,1,0,0,0,.87-1,71.73,71.73,0,0,0-2.16-11.83A44.67,44.67,0,0,0,431,145.79a46.24,46.24,0,0,1,7.64,24.59H435a1,1,0,1,0,0,1.92h3.6c0,1.28-.09,2.55-.21,3.8a1,1,0,0,0,.86,1.06h.1a1,1,0,0,0,.95-.86,48.48,48.48,0,0,0-8.3-32.41,1.32,1.32,0,0,0-.12-.2s0,0,0,0a48.85,48.85,0,0,0-14.67-13.78l-.14-.08a48.18,48.18,0,0,0-49.79,0,.84.84,0,0,0-.48.3,48.45,48.45,0,0,0-14.06,13,1,1,0,0,0-.72.29,1,1,0,0,0-.19,1c-.47.7-.93,1.41-1.37,2.13a1,1,0,0,0,1.66,1c.35-.59.73-1.16,1.11-1.73,8.93,7.73,22.91,12.38,37.92,12.57v12H362.78c0-1.67.09-3.33.22-5a1,1,0,1,0-1.92-.15c-.14,1.68-.2,3.39-.23,5.11H345.58a47.25,47.25,0,0,1,.41-5.46,1,1,0,0,0-.83-1.08,1,1,0,0,0-1.08.82A48.06,48.06,0,0,0,343.62,171.34Zm47.51-37.26a71.4,71.4,0,0,1-15-1.76c4.41-4.54,9.57-7.19,15-7.47Zm1.93-9.22c5.43.29,10.54,3,14.9,7.48a71.38,71.38,0,0,1-14.9,1.74Zm-1.93,31.57a66.56,66.56,0,0,1-25.47-5.19,48.13,48.13,0,0,1,9-17.3A73.28,73.28,0,0,0,391.13,136Zm-23.45-24.65c1.61.6,3.27,1.15,5,1.63a50.34,50.34,0,0,0-8.75,17,42.15,42.15,0,0,1-9.59-6.23A46.62,46.62,0,0,1,367.68,131.78Zm13-5.52a30.18,30.18,0,0,0-6.59,5.53c-1.43-.38-2.83-.81-4.19-1.28A46.45,46.45,0,0,1,380.64,126.26Zm23,0a46.06,46.06,0,0,1,10.75,4.25c-1.35.47-2.72.89-4.13,1.27A30.08,30.08,0,0,0,403.64,126.24Zm16.68,24.17a50.36,50.36,0,0,0-8.7-17q2.53-.72,4.94-1.63a46.9,46.9,0,0,1,13.32,12.44A42.57,42.57,0,0,1,420.32,150.41Zm-27.26,6V136A73.32,73.32,0,0,0,409.45,134a48.68,48.68,0,0,1,9.07,17.3A66.62,66.62,0,0,1,393.06,156.43Z"/><path class="cls-2" d="M392.1,178.26a1.65,1.65,0,0,1-1.66-1.65V173H363.49c0,1,.05,2.08.11,3.1a1.66,1.66,0,0,1-1.54,1.76h0a1.69,1.69,0,0,1-1.75-1.54c-.07-1.1-.1-2.21-.11-3.32H346.28c0,1.11.1,2.11.19,3a1.65,1.65,0,0,1-1.47,1.81,1.6,1.6,0,0,1-1.81-1.48,49.79,49.79,0,0,1-.26-5,50.76,50.76,0,0,1,.46-6.77,1.6,1.6,0,0,1,.65-1.09,1.58,1.58,0,0,1,1.22-.32,1.63,1.63,0,0,1,1.09.64,1.66,1.66,0,0,1,.32,1.22,43.71,43.71,0,0,0-.38,4.67h13.89c0-1.61.1-3.09.21-4.48a1.65,1.65,0,0,1,1.77-1.51,1.64,1.64,0,0,1,1.52,1.78c-.1,1.31-.17,2.69-.2,4.21h27V159c-14.66-.32-28.09-4.75-37.08-12.22-.23.35-.46.7-.67,1.05a1.66,1.66,0,0,1-2.26.58,1.63,1.63,0,0,1-.76-1,1.61,1.61,0,0,1,.18-1.25c.39-.65.8-1.28,1.22-1.91a1.62,1.62,0,0,1,.43-1.35,1.64,1.64,0,0,1,.84-.47,49,49,0,0,1,14-12.91,1.52,1.52,0,0,1,.64-.4,49,49,0,0,1,65.38,14l0,0a1.28,1.28,0,0,1,.21.3,48.87,48.87,0,0,1,8.65,27.82,49.77,49.77,0,0,1-.25,5,1.65,1.65,0,0,1-1.64,1.49,1.69,1.69,0,0,1-1.65-1.82c.09-.93.16-1.93.2-3H435a1.65,1.65,0,1,1,0-3.3h2.89a45.61,45.61,0,0,0-7.08-22.86,45.64,45.64,0,0,1-9.16,5.82,71.29,71.29,0,0,1,2,11.39,1.65,1.65,0,0,1-.37,1.21,1.69,1.69,0,0,1-1.12.6h0a1.68,1.68,0,0,1-1.78-1.49A66.76,66.76,0,0,0,418.59,154a69.59,69.59,0,0,1-24.84,5v10.65h13a1.65,1.65,0,0,1,0,3.3h-13v3.62A1.65,1.65,0,0,1,392.1,178.26Zm-30-6.64h29.73v5c0,.3.55.3.55,0v-5h14.36a.29.29,0,0,0,.28-.28.28.28,0,0,0-.28-.27H392.37V157.68h.68a68,68,0,0,0,25.73-5.2l.73-.32.21.77a68.62,68.62,0,0,1,2.06,11.31.28.28,0,0,0,.27.25.33.33,0,0,0,.28-.31,70.61,70.61,0,0,0-2.13-11.71l-.15-.56.52-.24a44,44,0,0,0,10-6.39l.59-.51.44.65a47,47,0,0,1,7.75,25v.71H435a.27.27,0,0,0-.27.27.28.28,0,0,0,.27.28h4.3v.7c0,1.42-.1,2.68-.22,3.85a.27.27,0,0,0,.25.3h0a.29.29,0,0,0,.3-.24c.16-1.63.24-3.27.24-4.89a47.42,47.42,0,0,0-8.43-27.06l.05,0-.15-.12a48.7,48.7,0,0,0-14.52-13.66,47.5,47.5,0,0,0-49.21-.1l-.48.29a47.75,47.75,0,0,0-13.86,12.84l-.21.3h-.36s-.15,0-.21.08a.27.27,0,0,0-.05.28l.13.34-.2.3c-.46.69-.92,1.38-1.35,2.1a.26.26,0,0,0,0,.2.27.27,0,0,0,.13.17.28.28,0,0,0,.38-.09c.3-.51.63-1,1-1.51l.6-.9.59.51c8.88,7.69,22.54,12.21,37.48,12.4h.68v13.39H362.08v-.7c0-1.82.1-3.46.22-5a.28.28,0,0,0-.25-.3.31.31,0,0,0-.3.25c-.12,1.56-.19,3.21-.22,5.07v.68H344.88v-.71a48.57,48.57,0,0,1,.41-5.53.25.25,0,0,0-.05-.2.28.28,0,0,0-.18-.11.28.28,0,0,0-.2,0,.27.27,0,0,0-.11.18,48.21,48.21,0,0,0-.45,6.59,47.24,47.24,0,0,0,.25,4.89.27.27,0,0,0,.54-.06c-.11-1.17-.19-2.43-.22-3.85v-.7h16.68v.68c0,1.31.05,2.63.13,3.92a.27.27,0,0,0,.27.25.28.28,0,0,0,.28-.29c-.09-1.27-.11-2.57-.13-3.87ZM431.73,144l-.14.21.4-.32Zm-39.36,13.18v-21.8h.68a71.78,71.78,0,0,0,16.24-2l.41-.1.28.32a49.38,49.38,0,0,1,9.19,17.55l.18.58-.56.25a67.1,67.1,0,0,1-25.72,5.24Zm1.38-20.45v19a65.76,65.76,0,0,0,23.92-4.87,48.07,48.07,0,0,0-8.47-16.14A72.76,72.76,0,0,1,393.75,136.68Zm-1.93,20.45h-.7a67,67,0,0,1-25.74-5.25l-.56-.24L365,151a49.16,49.16,0,0,1,9.16-17.55l.28-.32.41.1a72.23,72.23,0,0,0,16.29,2h.68Zm-25.32-6.28a65.62,65.62,0,0,0,23.94,4.88v-19a73.32,73.32,0,0,1-15.5-2A47.65,47.65,0,0,0,366.5,150.85Zm-2.18.54-.72-.35a42.84,42.84,0,0,1-9.74-6.33l-.48-.41.37-.51a47.19,47.19,0,0,1,13.57-12.6l.29-.17.31.11c1.61.61,3.27,1.15,4.92,1.62l1,.28-.67.81a50.32,50.32,0,0,0-8.63,16.79Zm-9.08-7.3a42,42,0,0,0,8.24,5.36,52.18,52.18,0,0,1,8-15.67c-1.25-.37-2.49-.79-3.71-1.24A45.7,45.7,0,0,0,355.24,144.09Zm64.65,7.29-.23-.77a49.88,49.88,0,0,0-8.58-16.79l-.65-.81,1-.29c1.65-.46,3.29-1,4.89-1.6l.32-.12.28.18a47.28,47.28,0,0,1,13.52,12.62l.36.51-.47.41a43.24,43.24,0,0,1-9.71,6.31Zm-7.1-17.62a51.6,51.6,0,0,1,7.95,15.68,41.52,41.52,0,0,0,8.21-5.35,45.93,45.93,0,0,0-12.47-11.56C415.27,133,414,133.39,412.79,133.76Zm-21,1h-.7A71.91,71.91,0,0,1,376,133l-1.19-.28.85-.87c4.59-4.73,9.93-7.39,15.44-7.68l.72,0Zm-14.28-2.86a70.57,70.57,0,0,0,12.9,1.46v-7.79A21.83,21.83,0,0,0,377.54,131.92Zm14.83,2.86V124.14l.73,0c5.45.29,10.76,3,15.35,7.69l.86.87-1.19.28a72,72,0,0,1-15.05,1.76Zm1.38-9.18v7.78a70.88,70.88,0,0,0,12.83-1.45A21.8,21.8,0,0,0,393.75,125.6Zm-19.48,7-.4-.1c-1.41-.38-2.84-.81-4.24-1.3l-1.47-.51,1.37-.74a47.29,47.29,0,0,1,10.94-4.32l4.46-1.14L381,126.84a30.51,30.51,0,0,0-6.45,5.41Zm-2.65-2.19c.73.23,1.47.45,2.2.65a32.87,32.87,0,0,1,3.05-2.89A44.75,44.75,0,0,0,371.62,130.37ZM410,132.54l-.28-.31a29.35,29.35,0,0,0-6.47-5.4l-4-2.41,4.5,1.15a47.44,47.44,0,0,1,10.91,4.32l1.37.74-1.47.51c-1.42.49-2.83.92-4.18,1.29Zm-2.57-4.41a31.15,31.15,0,0,1,3,2.86c.71-.2,1.43-.41,2.16-.64A44.59,44.59,0,0,0,407.46,128.13Z"/><path class="cls-2" d="M124.19,187.1a3.09,3.09,0,0,0,2.26-.91,3,3,0,0,0,.9-2.25,3,3,0,0,0-.9-2.18,3.13,3.13,0,0,0-2.26-.92,3.12,3.12,0,0,0-3.1,3.1,3.09,3.09,0,0,0,.91,2.25A3,3,0,0,0,124.19,187.1Z"/><path class="cls-2" d="M122.1,177.2a2.93,2.93,0,0,0,2.12.87,2.88,2.88,0,0,0,2.11-.87s0,0,.07,0a3.06,3.06,0,0,0,.92-2.24,3.14,3.14,0,0,0-3.1-3.11,3.07,3.07,0,0,0-2.19.92,3,3,0,0,0-.92,2.19,3.1,3.1,0,0,0,.92,2.24Z"/><path class="cls-1" d="M171.2,191.53a3,3,0,0,0,2.24-.92,3,3,0,0,0,.92-2.24,3,3,0,0,0-.92-2.18,3,3,0,0,0-2.24-.92,3,3,0,0,0-2.18.92,2.9,2.9,0,0,0-.92,2.18,3,3,0,0,0,.92,2.24A2.9,2.9,0,0,0,171.2,191.53Z"/><path class="cls-1" d="M260.05,221.42a2.18,2.18,0,0,1-.63,1.63,2.29,2.29,0,0,1-1.78.77H245.76a6.18,6.18,0,0,0,.18-1.52V183h-5.38v38.43a2.24,2.24,0,0,1-.5,1.45,2.28,2.28,0,0,1-1.91.95H227.39a6.23,6.23,0,0,0,.2-1.52v-8.05c0-4.5-1.19-8.15-3.54-10.95-2.76-3.25-6.74-4.86-12-4.86a36,36,0,0,0-10.89,1.83v4.25a55.49,55.49,0,0,1,10.12-1.4c3.64,0,6.39,1,8.3,3.16a11.12,11.12,0,0,1,2.59,7.79v7.35a2.13,2.13,0,0,1-2.41,2.4H191.08a6.66,6.66,0,0,0,.18-1.52v-8.42a14.78,14.78,0,0,0-4.19-10.83c-3.06-3.07-7.14-4.61-12.21-4.61q-14.12,0-22.72,14.67V183h-5.31v40.83H134.61a1.69,1.69,0,0,1-1.26-.64,2.36,2.36,0,0,1-.65-1.76V197.48h-.11a7.92,7.92,0,0,0-7.84-6.81H118a.22.22,0,0,1-.22-.22,5.22,5.22,0,0,0-5.21-5.22H98.91a5.24,5.24,0,0,0-5.22,5.22.21.21,0,0,1-.22.22h-6.8a8,8,0,0,0-7.93,8v21.75a7.94,7.94,0,0,0,7.93,7.93h38.08a8,8,0,0,0,4.56-1.45,5.44,5.44,0,0,0,3.91,1.45h52.27a5.45,5.45,0,0,0,4.43-2.2h.2l1.84,2.2H221.9a5.5,5.5,0,0,0,4.43-2.2h.18l1.78,2.2h11.88a5.38,5.38,0,0,0,4.45-2.2h.18l2.1,2.2h12.78a5.34,5.34,0,0,0,4.24-2,5.88,5.88,0,0,0,1.51-4V199.19h-5.38Zm-151.17,1.89H86.67a3,3,0,0,1-2.94-2.94V198.62a2.94,2.94,0,0,1,2.94-2.94h6.8a5.23,5.23,0,0,0,5.22-5.23.24.24,0,0,1,.22-.22h13.61a.24.24,0,0,1,.22.22,5.22,5.22,0,0,0,5.21,5.23h6.8a2.94,2.94,0,0,1,2.94,2.94v21.75a2.86,2.86,0,0,1-.35,1.36,2.93,2.93,0,0,1-2.59,1.58H108.88Zm76.94-1.89a2.11,2.11,0,0,1-2.35,2.4H152.14q4.49-12.28,11.84-17.47a17.41,17.41,0,0,1,10.12-3.3,12.94,12.94,0,0,1,7.79,2.22,9.27,9.27,0,0,1,3.93,8Z"/><path class="cls-1" d="M261.13,234.9a2.9,2.9,0,0,0-2.18.92A3,3,0,0,0,258,238a3,3,0,0,0,.92,2.24,3.05,3.05,0,0,0,4.37,0,3.08,3.08,0,0,0,.92-2.24,3,3,0,0,0-.92-2.18A2.92,2.92,0,0,0,261.13,234.9Z"/><path class="cls-1" d="M308.41,191.53a3.14,3.14,0,0,0,3.16-3.16,2.9,2.9,0,0,0-.92-2.18,3,3,0,0,0-2.24-.92,3.14,3.14,0,0,0-3.1,3.1,3,3,0,0,0,.92,2.24A2.9,2.9,0,0,0,308.41,191.53Z"/><path class="cls-1" d="M300.75,191.53a3,3,0,0,0,2.19-.92,3.08,3.08,0,0,0,.92-2.24,3.14,3.14,0,0,0-3.11-3.1,3.14,3.14,0,0,0-3.1,3.1,3,3,0,0,0,.92,2.24A2.9,2.9,0,0,0,300.75,191.53Z"/><path class="cls-1" d="M350.05,191.53a3,3,0,0,0,2.26-.92,3,3,0,0,0,.92-2.24,3,3,0,0,0-.92-2.18,3.09,3.09,0,0,0-2.26-.92,3,3,0,0,0-2.18.92,3,3,0,0,0-.92,2.18,3,3,0,0,0,.92,2.24A2.93,2.93,0,0,0,350.05,191.53Z"/><path class="cls-1" d="M419.43,183v38.43a2.44,2.44,0,0,1-.57,1.57,2.15,2.15,0,0,1-1.84.83H406.26a6.18,6.18,0,0,0,.18-1.52v-8.05q0-6.75-3.52-10.95c-2.76-3.25-6.75-4.86-12-4.86a35.93,35.93,0,0,0-10.87,1.83v4.25a55.27,55.27,0,0,1,10.12-1.4c3.62,0,6.39,1,8.28,3.16a11.13,11.13,0,0,1,2.61,7.79v7.35a2.13,2.13,0,0,1-2.41,2.4H369.93a5.7,5.7,0,0,0,.2-1.52v-8.42a14.78,14.78,0,0,0-4.19-10.83c-3.09-3.07-7.14-4.61-12.21-4.61q-14.12,0-22.73,14.67V183h-5.3v40.83H313.48a1.66,1.66,0,0,1-1.27-.64,2.39,2.39,0,0,1-.64-1.76V197.48h-2.66l-2.72,2.15a16.61,16.61,0,0,0-6.76-1.51,13.34,13.34,0,0,0-9.94,4.12,15.45,15.45,0,0,0-4.55,11.44,16.42,16.42,0,0,0,3.16,10.14A12.41,12.41,0,0,0,298.6,229a15.11,15.11,0,0,0,8.86-2.9,5.54,5.54,0,0,0,4.63,2.2h52.27a5.47,5.47,0,0,0,4.43-2.2h.2l1.84,2.2h29.92a5.48,5.48,0,0,0,4.44-2.2h.19l1.76,2.2H419a5.41,5.41,0,0,0,4.12-1.83,5.76,5.76,0,0,0,1.65-4.17V183ZM306.19,222.61a16.09,16.09,0,0,1-7.15,1.84,8,8,0,0,1-6.33-2.67c-1.6-1.93-2.41-4.59-2.41-8a11.36,11.36,0,0,1,2.48-7.33,9.42,9.42,0,0,1,7.79-3.8,12.33,12.33,0,0,1,5.62,1.4Zm58.48-1.19a2.09,2.09,0,0,1-2.33,2.4H331q4.5-12.28,11.83-17.47a17.47,17.47,0,0,1,10.14-3.3,13,13,0,0,1,7.79,2.22,9.25,9.25,0,0,1,3.91,8Z"/><path class="cls-2" d="M112.08,201a10.66,10.66,0,1,0-6.36,19.2,9.9,9.9,0,0,0,1.45-.11,10.3,10.3,0,0,0,4.81-1.95,10.59,10.59,0,0,0,4.39-8.6,10.48,10.48,0,0,0-1-4.53A10.64,10.64,0,0,0,112.08,201Zm-6,14.18a2.49,2.49,0,0,1-.4,0,5.66,5.66,0,1,1,0-11.31,5.47,5.47,0,0,1,2.9.81,5.64,5.64,0,0,1-2.5,10.48Z"/><rect class="cls-3" x="257.24" y="115.48" width="4.52" height="8.38" rx="1.23" transform="translate(52.83 317.02) rotate(-68.43)"/><path class="cls-2" d="M346.68,164.82l-3.29-.24a46.07,46.07,0,0,1,8.44-21.23l2.56,2A42.67,42.67,0,0,0,346.68,164.82Z"/></g></svg>