<svg xmlns="http://www.w3.org/2000/svg" viewBox="0 0 40 41.76"><defs><style>.cls-1{fill:#8a1348;}.cls-2{fill:#939393;}.cls-3{fill:#fff;}</style></defs><title>Artboard 5</title><g id="Layer_3" data-name="Layer 3"><path class="cls-1" d="M8.21,26.71v.51s0,0,0,0,0,0,0,0h0v.15H8.19a.17.17,0,0,1-.12-.06.24.24,0,0,1-.18.07.26.26,0,0,1-.19-.07.33.33,0,0,1-.11-.27.34.34,0,0,1,.1-.26.29.29,0,0,1,.22-.09.4.4,0,0,1,.15,0l.06-.05ZM8,26.89H7.94a.19.19,0,0,0-.13.05.25.25,0,0,0,0,.15.2.2,0,0,0,0,.14.14.14,0,0,0,.12.06.19.19,0,0,0,.1,0Z"/><path class="cls-1" d="M8.53,27.26v.15H8.27v-.15Z"/><path class="cls-1" d="M8.79,27.26v.15H8.52v-.15Z"/><path class="cls-1" d="M9,27.26v.15H8.78v-.15Z"/><path class="cls-1" d="M9.3,27.26v.15H9v-.15Z"/><path class="cls-1" d="M9.55,27.26v.15H9.29v-.15Z"/><path class="cls-1" d="M9.8,27.26v.15H9.54v-.15Z"/><path class="cls-1" d="M10.06,27.26v.15H9.8v-.15Z"/><path class="cls-1" d="M10.31,27.26v.15h-.26v-.15Z"/><path class="cls-1" d="M10.57,27.26v.15H10.3v-.15Z"/><path class="cls-1" d="M10.82,27.26v.15h-.26v-.15Z"/><path class="cls-1" d="M11.07,27.26v.15h-.26v-.15Z"/><path class="cls-1" d="M11.33,27.26v.15h-.26v-.15Z"/><path class="cls-1" d="M11.58,27.26v.15h-.26v-.15Z"/><path class="cls-1" d="M11.84,27.26v.15h-.27v-.15Z"/><path class="cls-1" d="M12.09,27.26v.15h-.26v-.15Z"/><path class="cls-1" d="M12.35,27.26v.15h-.27v-.15Z"/><path class="cls-1" d="M12.6,27.26v.15h-.26v-.15Z"/><path class="cls-1" d="M12.85,27.26v.15h-.26v-.15Z"/><path class="cls-1" d="M13.11,27.26v.15h-.27v-.15Z"/><path class="cls-1" d="M13.36,27.26v.15H13.1v-.15Z"/><path class="cls-1" d="M13.62,27.26v.15h-.27v-.15Z"/><path class="cls-1" d="M13.87,27.26v.15h-.26v-.15Z"/><path class="cls-1" d="M14.15,27.26a.22.22,0,0,1-.05-.08.51.51,0,0,1,0-.13.3.3,0,0,1,.12-.25.42.42,0,0,1,.23-.07.45.45,0,0,1,.16,0v.13l-.14,0a.18.18,0,0,0-.2.2.2.2,0,0,0,0,.11.19.19,0,0,0,.15.08h.28v.06l-.07.09h-.78v-.15Z"/><path class="cls-1" d="M15.17,27.41a.31.31,0,0,1-.25-.11.4.4,0,0,1,0-.48.32.32,0,0,1,.24-.09.35.35,0,0,1,.18.05.26.26,0,0,1,.1.22v.26h0v.15h0a.33.33,0,0,1-.1.24.38.38,0,0,1-.17.08l-.13,0H15l-.07-.09v-.06H15c.16,0,.24-.06.26-.19Zm.12-.41a.1.1,0,0,0,0-.09.09.09,0,0,0-.07,0,.13.13,0,0,0-.12.05.2.2,0,0,0,0,.14.17.17,0,0,0,.05.14.17.17,0,0,0,.12.05h.1Z"/><path class="cls-1" d="M15.76,27.26v.15H15.5v-.15Z"/><path class="cls-1" d="M16,27.26v.15h-.27v-.15Z"/><path class="cls-1" d="M16.27,27.26v.15H16v-.15Z"/><path class="cls-1" d="M16.53,27.26v.15h-.27v-.15Z"/><path class="cls-1" d="M16.78,27.26v.15h-.26v-.15Z"/><path class="cls-1" d="M17,27.26v.15h-.26v-.15Z"/><path class="cls-1" d="M17.29,27.26v.15H17v-.15Z"/><path class="cls-1" d="M17.54,27.26v.15h-.26v-.15Z"/><path class="cls-1" d="M17.8,27.26v.15h-.27v-.15Z"/><path class="cls-1" d="M18.05,27.26v.15h-.26v-.15Z"/><path class="cls-1" d="M18.33,27.26a.31.31,0,0,1,0-.1.36.36,0,0,1,0-.11.38.38,0,0,1,.07-.21.35.35,0,0,1,.27-.11.25.25,0,0,1,.19.07.24.24,0,0,1,.09.2v.25a.13.13,0,0,1,0,.1.14.14,0,0,1-.11.06H18v-.15Zm.16-.82a.07.07,0,0,1,.06,0,.09.09,0,0,1,0,.07.11.11,0,0,1-.09.09.09.09,0,0,1-.07,0,.07.07,0,0,1,0-.06.07.07,0,0,1,.09-.09Zm.22.56a.18.18,0,0,0,0-.1l-.07,0a.14.14,0,0,0-.14.07.21.21,0,0,0,0,.12.2.2,0,0,0,.06.15.2.2,0,0,0,.13,0h.05s0,0,0,0Zm0-.56a.08.08,0,0,1,.07,0,.09.09,0,0,1,0,.07.09.09,0,0,1,0,.06.09.09,0,0,1-.07,0,.11.11,0,0,1-.09-.09.09.09,0,0,1,0-.07A.07.07,0,0,1,18.7,26.44Z"/><path class="cls-1" d="M19.48,27.4l-.12,0a.29.29,0,0,1-.24-.12.38.38,0,0,1-.08-.23.32.32,0,0,1,.09-.24.3.3,0,0,1,.24-.1.29.29,0,0,1,.19.06.24.24,0,0,1,.1.21v.37a.34.34,0,0,1-.12.28.3.3,0,0,1-.16.08l-.12,0h-.05l-.06-.08v-.07h.08C19.39,27.6,19.47,27.53,19.48,27.4Zm0-.4a.12.12,0,0,0,0-.1l-.07,0c-.05,0-.09,0-.11.05a.2.2,0,0,0-.05.14.25.25,0,0,0,.05.15.19.19,0,0,0,.13.05l.1,0Z"/><path class="cls-1" d="M20.5,26.75v.62a.38.38,0,0,1-.11.28.51.51,0,0,1-.18.09h-.16L20,27.66v-.07h.09c.17,0,.26-.08.26-.24v-.61Z"/><path class="cls-1" d="M21,27.41a.33.33,0,0,1-.25-.11.4.4,0,0,1,0-.48.32.32,0,0,1,.24-.09.35.35,0,0,1,.18.05.27.27,0,0,1,.11.22v.26h0v.15h0a.38.38,0,0,1-.11.24.34.34,0,0,1-.17.08l-.13,0h-.06l-.08-.09v-.06h.11c.16,0,.25-.06.26-.19Zm.12-.41a.12.12,0,0,0,0-.09.13.13,0,0,0-.08,0,.13.13,0,0,0-.12.05.2.2,0,0,0,0,.14.22.22,0,0,0,0,.14.17.17,0,0,0,.13.05h.09Z"/><path class="cls-1" d="M21.6,27.26v.15h-.27v-.15Z"/><path class="cls-1" d="M21.85,27.26v.15h-.26v-.15Z"/><path class="cls-1" d="M22.11,27.26v.15h-.27v-.15Z"/><path class="cls-1" d="M22.36,27.26v.15H22.1v-.15Z"/><path class="cls-1" d="M22.61,27.26v.15h-.26v-.15Z"/><path class="cls-1" d="M22.87,27.26v.15H22.6v-.15Z"/><path class="cls-1" d="M23.12,27.26v.15h-.26v-.15Z"/><path class="cls-1" d="M23.38,27.26v.15h-.27v-.15Z"/><path class="cls-1" d="M23.63,27.26v.15h-.26v-.15Z"/><path class="cls-1" d="M23.88,27.26v.15h-.26v-.15Z"/><path class="cls-1" d="M24.14,27.26v.15h-.27v-.15Z"/><path class="cls-1" d="M24.39,27.26v.15h-.26v-.15Z"/><path class="cls-1" d="M24.67,27.26a.31.31,0,0,1-.05-.1.36.36,0,0,1,0-.11.38.38,0,0,1,.07-.21.35.35,0,0,1,.27-.11.29.29,0,0,1,.2.07.26.26,0,0,1,.08.2v.25a.13.13,0,0,1,0,.1.14.14,0,0,1-.11.06h-.69v-.15Zm.38-.26a.13.13,0,0,0,0-.1l-.07,0a.14.14,0,0,0-.14.07.21.21,0,0,0,0,.12.2.2,0,0,0,.06.15.2.2,0,0,0,.13,0H25s0,0,0,0Zm-.11-.56a.07.07,0,0,1,.06,0,.09.09,0,0,1,0,.07.11.11,0,0,1-.09.09.09.09,0,0,1-.07,0,.09.09,0,0,1,0-.06.09.09,0,0,1,0-.07A.08.08,0,0,1,24.94,26.44Z"/><path class="cls-1" d="M26.87,26.75v.5a.18.18,0,0,1,0,.1.14.14,0,0,1-.12.06h-.8a.25.25,0,0,1-.16-.06.25.25,0,0,1-.09-.2v-.23l.09-.07h.09v.3a.1.1,0,0,0,.11.11h.71s0,0,0,0v-.47Zm-.71,0a.11.11,0,0,1,.09.09.09.09,0,0,1,0,.07.09.09,0,0,1-.06,0,.09.09,0,0,1-.07,0,.08.08,0,0,1,0-.07.07.07,0,0,1,0-.06A.09.09,0,0,1,26.16,26.71Zm.11-.17.05,0a.09.09,0,0,1,0,.07.09.09,0,0,1,0,.06l-.05,0-.07,0a.14.14,0,0,1,0-.06.14.14,0,0,1,0-.07Zm.1.17a.09.09,0,0,1,.07,0,.07.07,0,0,1,0,.06.08.08,0,0,1,0,.07.09.09,0,0,1-.07,0,.09.09,0,0,1-.06,0,.09.09,0,0,1,0-.07.11.11,0,0,1,.09-.09Z"/><path class="cls-1" d="M27.17,26.74h.11a.33.33,0,0,1,.26.11.32.32,0,0,1,.09.24v.18h0v.15h0l0-.06h0s0,0,0,0a.18.18,0,0,1-.1,0H27v-.15h.4s0,0,0,0v-.13a.23.23,0,0,0-.06-.16.34.34,0,0,0-.16-.06h-.07Z"/><path class="cls-1" d="M27.92,27.26v.15h-.26v-.15Z"/><path class="cls-1" d="M28.18,27.26v.15h-.27v-.15Z"/><path class="cls-1" d="M28.43,27.26v.15h-.26v-.15Z"/><path class="cls-1" d="M28.69,27.26v.15h-.27v-.15Z"/><path class="cls-1" d="M28.94,27.26v.15h-.26v-.15Z"/><path class="cls-1" d="M29.19,27.26v.15h-.26v-.15Z"/><path class="cls-1" d="M29.45,27.26v.15h-.27v-.15Z"/><path class="cls-1" d="M29.7,27.26v.15h-.26v-.15Z"/><path class="cls-1" d="M30,27.26v.15h-.27v-.15Z"/><path class="cls-1" d="M30.14,26.77a1.2,1.2,0,0,1,.24,0,.36.36,0,0,1,.38.36v.17h0v.15h0l0-.06h0a.14.14,0,0,1-.12.06h-.66v-.15h.61s0,0,0,0V27.1a.21.21,0,0,0-.06-.16.25.25,0,0,0-.17-.06l-.21,0Z"/><path class="cls-1" d="M31.22,26.38v.87a.13.13,0,0,1,0,.1.13.13,0,0,1-.11.06h-.28v-.15H31a0,0,0,0,0,0,0v-.84Z"/><path class="cls-1" d="M31.59,26.38v1l-.08.07h-.09V26.38Z"/><path class="cls-2" d="M26.74,20.52c0,.13,0,.26,0,.39s0,.06.07.06h0a.08.08,0,0,0,.07-.08c0-.1,0-.2,0-.29h1.19c0,.1,0,.2,0,.3a.07.07,0,0,0,.07.07h0a.08.08,0,0,0,.07-.08,2.71,2.71,0,0,1,0-.29h2.2v.33a.08.08,0,0,0,.08.07.07.07,0,0,0,.07-.07V20.6h1.06a.08.08,0,0,0,.08-.08.07.07,0,0,0-.08-.07H30.58v-.94a5.24,5.24,0,0,0,2-.41,5,5,0,0,1,.16.87.08.08,0,0,0,.07.07h0a.08.08,0,0,0,.07-.08,5.18,5.18,0,0,0-.17-.92,3.67,3.67,0,0,0,.79-.5,3.56,3.56,0,0,1,.59,1.91h-.28a.07.07,0,0,0-.07.07.08.08,0,0,0,.07.08h.28c0,.09,0,.19,0,.29a.06.06,0,0,0,.06.08h0a.07.07,0,0,0,.07-.06,2.55,2.55,0,0,0,0-.39,3.71,3.71,0,0,0-.66-2.13s0,0,0,0h0a3.76,3.76,0,0,0-1.14-1.07h0a3.74,3.74,0,0,0-3.87,0l0,0a3.78,3.78,0,0,0-1.09,1,.07.07,0,0,0-.06,0,.08.08,0,0,0,0,.08l-.11.16a.08.08,0,0,0,0,.11.07.07,0,0,0,.1,0l.08-.13a4.66,4.66,0,0,0,2.95,1v.94h-2.2a2.55,2.55,0,0,1,0-.39.08.08,0,0,0-.15,0c0,.13,0,.26,0,.4H26.89a3,3,0,0,1,0-.43.06.06,0,0,0-.06-.08.08.08,0,0,0-.09.06A4.53,4.53,0,0,0,26.74,20.52Zm3.69-2.9a5.5,5.5,0,0,1-1.16-.13,1.75,1.75,0,0,1,1.16-.58Zm.15-.71a1.75,1.75,0,0,1,1.16.58,5.5,5.5,0,0,1-1.16.13Zm-.15,2.45a5.22,5.22,0,0,1-2-.4,4,4,0,0,1,.7-1.35,5.41,5.41,0,0,0,1.28.16Zm-1.82-1.91a3.59,3.59,0,0,0,.39.12,4,4,0,0,0-.69,1.33,3.28,3.28,0,0,1-.74-.49A3.52,3.52,0,0,1,28.61,17.45Zm1-.43a2.09,2.09,0,0,0-.52.43l-.32-.1A3.06,3.06,0,0,1,29.62,17Zm1.78,0a3.06,3.06,0,0,1,.84.33c-.11,0-.21.07-.32.09A2.28,2.28,0,0,0,31.4,17Zm1.3,1.87A3.83,3.83,0,0,0,32,17.57l.39-.13a4,4,0,0,1,1,1A3,3,0,0,1,32.7,18.89Zm-2.12.47V17.77a5.41,5.41,0,0,0,1.28-.16,3.83,3.83,0,0,1,.7,1.35A5.22,5.22,0,0,1,30.58,19.36Z"/><path class="cls-2" d="M30.51,21.06a.13.13,0,0,1-.13-.13v-.28h-2.1c0,.08,0,.16,0,.24a.13.13,0,0,1-.12.14h0a.13.13,0,0,1-.13-.12,2.26,2.26,0,0,1,0-.26H27a1.85,1.85,0,0,0,0,.24.12.12,0,0,1-.11.14c-.09,0-.14-.05-.14-.12a2.55,2.55,0,0,1,0-.39,4.71,4.71,0,0,1,0-.53.14.14,0,0,1,.05-.08.17.17,0,0,1,.1,0l.08.05a.19.19,0,0,1,0,.1,2,2,0,0,0,0,.36H28c0-.12,0-.24,0-.35a.12.12,0,0,1,.14-.11.15.15,0,0,1,.09,0,.17.17,0,0,1,0,.1c0,.1,0,.2,0,.32h2.1v-.83a4.66,4.66,0,0,1-2.88-.94l-.06.08a.12.12,0,0,1-.17,0,.12.12,0,0,1-.06-.08.13.13,0,0,1,0-.09c0-.06.07-.1.1-.15a.11.11,0,0,1,0-.11.09.09,0,0,1,.07,0,3.85,3.85,0,0,1,1.08-1l.05,0a3.88,3.88,0,0,1,2-.54,3.88,3.88,0,0,1,3.13,1.63h0s0,0,0,0a3.79,3.79,0,0,1,.68,2.16c0,.13,0,.26,0,.39a.13.13,0,0,1-.13.12.14.14,0,0,1-.13-.14c0-.08,0-.16,0-.24h-.23a.13.13,0,1,1,0-.26h.23a3.68,3.68,0,0,0-.55-1.77,3.9,3.9,0,0,1-.71.45A6.47,6.47,0,0,1,33,20a.1.1,0,0,1,0,.1.12.12,0,0,1-.08,0h0a.13.13,0,0,1-.14-.11,7,7,0,0,0-.14-.8,5.31,5.31,0,0,1-1.93.38v.83h1a.13.13,0,0,1,0,.26h-1v.28A.13.13,0,0,1,30.51,21.06Zm-2.34-.52h2.32v.39s0,0,0,0v-.39h1.11s0,0,0,0,0,0,0,0H30.53v-1h0a5.17,5.17,0,0,0,2-.41l.06,0v.06a4.4,4.4,0,0,1,.16.88,0,0,0,0,0,0,0,0,0,0,0,0,0,0,5.82,5.82,0,0,0-.17-.91v0l0,0a3.52,3.52,0,0,0,.77-.5l0,0,0,.06a3.67,3.67,0,0,1,.61,1.93v.06h-.34a0,0,0,0,0,0,0,0,0,0,0,0,0,0h.34v.06c0,.11,0,.21,0,.3a0,0,0,0,0,0,0h0a0,0,0,0,0,0,0c0-.13,0-.25,0-.38a3.75,3.75,0,0,0-.65-2.1h0a3.84,3.84,0,0,0-1.13-1.07,3.75,3.75,0,0,0-1.92-.53,3.69,3.69,0,0,0-1.91.53l0,0a3.69,3.69,0,0,0-1.08,1l0,0h0s0,0,0,0,0,0,0,0v0l0,0a.86.86,0,0,0-.1.16s0,0,0,0h0a0,0,0,0,0,0,0,1,1,0,0,1,.08-.11l0-.08.05,0a4.6,4.6,0,0,0,2.91,1h.06v1H28.17v-.05c0-.15,0-.27,0-.39s0,0,0,0a0,0,0,0,0,0,0c0,.12,0,.25,0,.4v.05H26.84v-.06a3,3,0,0,1,0-.43h0s0,0,0,0a2.92,2.92,0,0,0,0,.51c0,.13,0,.25,0,.38a0,0,0,0,0,0,0s0,0,0,0,0-.19,0-.3v-.06h1.29v.06c0,.1,0,.2,0,.3a0,0,0,0,0,0,0s0,0,0,0,0-.2,0-.3Zm5.42-2.15v0l0,0Zm-3.06,1v-1.7h0a5.24,5.24,0,0,0,1.26-.16h0l0,0a3.9,3.9,0,0,1,.71,1.36v0l0,0a5.17,5.17,0,0,1-2,.41Zm.11-1.59v1.48a5.26,5.26,0,0,0,1.85-.38,3.85,3.85,0,0,0-.65-1.26A5.34,5.34,0,0,1,30.64,17.83Zm-.15,1.59h-.06a5.17,5.17,0,0,1-2-.41l0,0v0a3.81,3.81,0,0,1,.71-1.36l0,0h0a5.24,5.24,0,0,0,1.26.16h.06Zm-2-.49a5.27,5.27,0,0,0,1.86.38V17.83a5.35,5.35,0,0,1-1.21-.16A3.75,3.75,0,0,0,28.52,18.93Zm-.17,0-.06,0a3.42,3.42,0,0,1-.76-.49l0,0,0,0a3.64,3.64,0,0,1,1-1h.05c.12,0,.25.09.38.12l.08,0-.05.07a3.64,3.64,0,0,0-.67,1.3Zm-.71-.57a3.22,3.22,0,0,0,.64.42,4.24,4.24,0,0,1,.62-1.22l-.29-.09A3.58,3.58,0,0,0,27.64,18.4Zm5,.57,0-.06A4,4,0,0,0,32,17.6l-.05-.06.08,0,.38-.13h0a3.92,3.92,0,0,1,1.05,1l0,0,0,0a3.42,3.42,0,0,1-.76.49Zm-.56-1.37a4,4,0,0,1,.62,1.22,3,3,0,0,0,.64-.42,3.62,3.62,0,0,0-1-.9Zm-1.62.08h-.06a5.59,5.59,0,0,1-1.17-.14l-.1,0,.07-.07a1.85,1.85,0,0,1,1.2-.6h.06Zm-1.11-.22a6.38,6.38,0,0,0,1,.11V17A1.64,1.64,0,0,0,29.38,17.46Zm1.15.22v-.83h0a1.79,1.79,0,0,1,1.2.59l.06.07-.09,0a5.59,5.59,0,0,1-1.17.14Zm.11-.71v.6a5.36,5.36,0,0,0,1-.11A1.66,1.66,0,0,0,30.64,17Zm-1.52.54h0l-.33-.1-.11,0,.1-.06A3.4,3.4,0,0,1,29.6,17l.35-.09-.31.18a2.72,2.72,0,0,0-.5.42Zm-.2-.17.17.05a2.5,2.5,0,0,1,.23-.23A2.87,2.87,0,0,0,28.92,17.34Zm3,.17,0,0a2.43,2.43,0,0,0-.5-.42l-.31-.19.35.09a3.87,3.87,0,0,1,.85.34l.1.06-.11,0-.33.1Zm-.2-.35.24.22.16-.05Z"/><path class="cls-2" d="M9.69,21.75a.25.25,0,0,0,.17-.08.21.21,0,0,0,.07-.17.22.22,0,0,0-.07-.17.23.23,0,0,0-.17-.07.21.21,0,0,0-.17.07.23.23,0,0,0-.08.17.28.28,0,0,0,.25.25Z"/><path class="cls-2" d="M9.52,21a.27.27,0,0,0,.17.06A.23.23,0,0,0,9.85,21h0a.24.24,0,0,0,.07-.17.26.26,0,0,0-.07-.17.23.23,0,0,0-.17-.07.24.24,0,0,0-.24.24.21.21,0,0,0,.07.17Z"/><path class="cls-1" d="M13.34,22.09a.21.21,0,0,0,.17-.07.25.25,0,0,0,.08-.18.25.25,0,0,0-.08-.17.24.24,0,0,0-.17-.07.26.26,0,0,0-.17.07.23.23,0,0,0-.07.17.24.24,0,0,0,.07.18A.22.22,0,0,0,13.34,22.09Z"/><path class="cls-1" d="M20.24,24.41a.18.18,0,0,1,0,.13.2.2,0,0,1-.14.06h-.93a.5.5,0,0,0,0-.12V21.43h-.42v3a.17.17,0,0,1,0,.12.2.2,0,0,1-.15.07h-.83a.49.49,0,0,0,0-.12v-.62a1.32,1.32,0,0,0-.27-.86,1.17,1.17,0,0,0-.93-.37,2.65,2.65,0,0,0-.85.14v.33a4.62,4.62,0,0,1,.79-.11.8.8,0,0,1,.64.25.82.82,0,0,1,.2.6v.57c0,.13-.06.19-.18.19H14.88a.5.5,0,0,0,0-.12v-.65a1.16,1.16,0,0,0-.33-.85,1.31,1.31,0,0,0-1-.35,2,2,0,0,0-1.76,1.14V21.43h-.41V24.6H10.5a.14.14,0,0,1-.1-.05.16.16,0,0,1-.05-.14V22.55h0A.62.62,0,0,0,9.73,22H9.18a.4.4,0,0,0-.4-.41H7.72a.4.4,0,0,0-.4.41H6.77a.62.62,0,0,0-.62.62v1.69a.62.62,0,0,0,.62.62h3a.62.62,0,0,0,.35-.12.41.41,0,0,0,.31.12h4.06a.42.42,0,0,0,.34-.17h0L15,25h2.33a.42.42,0,0,0,.34-.17h0l.14.17h.92a.44.44,0,0,0,.35-.17h0l.16.17h1a.41.41,0,0,0,.33-.16.47.47,0,0,0,.11-.31V22.69h-.42ZM8.5,24.56H6.77a.23.23,0,0,1-.23-.23V22.64a.23.23,0,0,1,.23-.23H7.3a.4.4,0,0,0,.4-.4,0,0,0,0,1,0,0H8.78a0,0,0,0,1,0,0,.4.4,0,0,0,.4.4h.53a.23.23,0,0,1,.23.23v1.69a.2.2,0,0,1,0,.11.23.23,0,0,1-.2.12H8.5Zm6-.15a.17.17,0,0,1-.19.19H11.86a2.75,2.75,0,0,1,.92-1.36,1.36,1.36,0,0,1,.79-.26,1,1,0,0,1,.6.18.72.72,0,0,1,.31.62Z"/><path class="cls-1" d="M20.33,25.46a.22.22,0,0,0-.17.07.23.23,0,0,0-.07.17.24.24,0,0,0,.07.18.26.26,0,0,0,.17.07.28.28,0,0,0,.17-.07.24.24,0,0,0,.07-.18.24.24,0,0,0-.24-.24Z"/><path class="cls-1" d="M24,22.09a.24.24,0,0,0,.25-.25.23.23,0,0,0-.07-.17A.29.29,0,0,0,24,21.6a.24.24,0,0,0-.24.24.29.29,0,0,0,.07.18A.23.23,0,0,0,24,22.09Z"/><path class="cls-1" d="M23.41,22.09a.23.23,0,0,0,.17-.07.29.29,0,0,0,.07-.18.24.24,0,0,0-.24-.24.24.24,0,0,0-.17.07.23.23,0,0,0-.07.17.24.24,0,0,0,.07.18A.21.21,0,0,0,23.41,22.09Z"/><path class="cls-1" d="M27.24,22.09a.21.21,0,0,0,.17-.07.25.25,0,0,0,.08-.18.25.25,0,0,0-.08-.17.24.24,0,0,0-.17-.07.26.26,0,0,0-.17.07.23.23,0,0,0-.07.17.24.24,0,0,0,.07.18A.22.22,0,0,0,27.24,22.09Z"/><path class="cls-1" d="M32.63,21.43v3a.2.2,0,0,1,0,.13.19.19,0,0,1-.15.06h-.83a.49.49,0,0,0,0-.12v-.62a1.32,1.32,0,0,0-.27-.86,1.17,1.17,0,0,0-.93-.37,2.65,2.65,0,0,0-.85.14v.33a4.76,4.76,0,0,1,.79-.11.8.8,0,0,1,.64.25.82.82,0,0,1,.2.6v.57c0,.13-.06.19-.18.19H28.78a.5.5,0,0,0,0-.12v-.65a1.16,1.16,0,0,0-.33-.85,1.31,1.31,0,0,0-.95-.35,2,2,0,0,0-1.76,1.14V21.43h-.41V24.6h-1a.14.14,0,0,1-.1-.05.2.2,0,0,1-.05-.14V22.55H24l-.21.17a1.28,1.28,0,0,0-.53-.12,1.06,1.06,0,0,0-.77.32,1.23,1.23,0,0,0-.35.89,1.3,1.3,0,0,0,.24.79,1,1,0,0,0,.82.4,1.16,1.16,0,0,0,.69-.22.45.45,0,0,0,.36.17h4.06a.46.46,0,0,0,.35-.17h0l.14.17h2.33a.42.42,0,0,0,.34-.17h0l.14.17h.92a.42.42,0,0,0,.32-.15.41.41,0,0,0,.13-.32V21.43Zm-8.8,3.08a1.32,1.32,0,0,1-.56.14.62.62,0,0,1-.49-.21,1,1,0,0,1-.18-.62.87.87,0,0,1,.19-.57.7.7,0,0,1,.6-.29,1,1,0,0,1,.44.1Zm4.55-.1a.17.17,0,0,1-.19.19H25.76a2.75,2.75,0,0,1,.92-1.36,1.38,1.38,0,0,1,.79-.26,1,1,0,0,1,.6.18.72.72,0,0,1,.31.62Z"/><path class="cls-2" d="M8.74,22.82a.8.8,0,0,0-.49-.16.83.83,0,1,0,0,1.65h.11a.86.86,0,0,0,.38-.16.83.83,0,0,0,.34-.66.81.81,0,0,0-.34-.67Zm-.46,1.1h0a.44.44,0,0,1-.44-.44.44.44,0,0,1,.44-.44.43.43,0,0,1,.44.44A.43.43,0,0,1,8.28,23.92Z"/><rect class="cls-3" x="20.03" y="16.18" width="0.35" height="0.65" rx="0.18" transform="translate(-2.57 29.23) rotate(-68.43)"/><path class="cls-2" d="M27,20h-.26a3.67,3.67,0,0,1,.66-1.65l.2.15A3.3,3.3,0,0,0,27,20Z"/></g></svg>