<svg xmlns="http://www.w3.org/2000/svg" viewBox="0 0 150 100"><defs><style>.cls-1{fill:#8a1348;}.cls-2{fill:#939393;}.cls-3{fill:#fff;}</style></defs><title>Artboard 5 copy</title><g id="Layer_3" data-name="Layer 3"><path class="cls-1" d="M37.12,62.41v1.7a.12.12,0,0,0,0,.09.11.11,0,0,0,.08,0h.13v.48h-.3a.53.53,0,0,1-.39-.17.91.91,0,0,1-.6.22,1,1,0,0,1-.65-.23,1.2,1.2,0,0,1-.36-.91,1.16,1.16,0,0,1,.33-.85,1,1,0,0,1,.75-.31,1.23,1.23,0,0,1,.49.1l.21-.15Zm-.58.61a1,1,0,0,0-.32-.06.54.54,0,0,0-.42.18.72.72,0,0,0-.16.49.78.78,0,0,0,.14.48.51.51,0,0,0,.41.18.93.93,0,0,0,.35-.08Z"/><path class="cls-1" d="M38.21,64.23v.48h-.88v-.48Z"/><path class="cls-1" d="M39.05,64.23v.48h-.88v-.48Z"/><path class="cls-1" d="M39.89,64.23v.48H39v-.48Z"/><path class="cls-1" d="M40.74,64.23v.48h-.88v-.48Z"/><path class="cls-1" d="M41.58,64.23v.48H40.7v-.48Z"/><path class="cls-1" d="M42.43,64.23v.48h-.88v-.48Z"/><path class="cls-1" d="M43.27,64.23v.48h-.88v-.48Z"/><path class="cls-1" d="M44.11,64.23v.48h-.87v-.48Z"/><path class="cls-1" d="M45,64.23v.48h-.88v-.48Z"/><path class="cls-1" d="M45.8,64.23v.48h-.88v-.48Z"/><path class="cls-1" d="M46.65,64.23v.48h-.88v-.48Z"/><path class="cls-1" d="M47.49,64.23v.48h-.88v-.48Z"/><path class="cls-1" d="M48.33,64.23v.48h-.87v-.48Z"/><path class="cls-1" d="M49.18,64.23v.48H48.3v-.48Z"/><path class="cls-1" d="M50,64.23v.48h-.88v-.48Z"/><path class="cls-1" d="M50.87,64.23v.48H50v-.48Z"/><path class="cls-1" d="M51.71,64.23v.48h-.88v-.48Z"/><path class="cls-1" d="M52.55,64.23v.48h-.87v-.48Z"/><path class="cls-1" d="M53.4,64.23v.48h-.88v-.48Z"/><path class="cls-1" d="M54.24,64.23v.48h-.88v-.48Z"/><path class="cls-1" d="M55.09,64.23v.48h-.88v-.48Z"/><path class="cls-1" d="M55.93,64.23v.48h-.88v-.48Z"/><path class="cls-1" d="M56.85,64.23A.76.76,0,0,1,56.7,64a1.16,1.16,0,0,1-.07-.42,1,1,0,0,1,.38-.83,1.32,1.32,0,0,1,.79-.23,1.61,1.61,0,0,1,.52.08V63a2.23,2.23,0,0,0-.47-.06.57.57,0,0,0-.64.65.75.75,0,0,0,.09.37.57.57,0,0,0,.49.26h.92v.19l-.24.29H55.9v-.48Z"/><path class="cls-1" d="M60.24,64.71a1,1,0,0,1-.82-.35,1.11,1.11,0,0,1-.25-.75,1.13,1.13,0,0,1,.3-.83,1.09,1.09,0,0,1,.8-.3,1.12,1.12,0,0,1,.61.17.82.82,0,0,1,.35.7v.88h.15v.48h-.16a1.12,1.12,0,0,1-.36.81,1.25,1.25,0,0,1-.55.28,2.1,2.1,0,0,1-.43,0h-.22l-.24-.3v-.21l.36,0c.52,0,.81-.21.85-.65Zm.41-1.36a.35.35,0,0,0-.13-.29.33.33,0,0,0-.25-.1.51.51,0,0,0-.39.17.75.75,0,0,0-.14.47.63.63,0,0,0,.16.46.54.54,0,0,0,.42.17h.33Z"/><path class="cls-1" d="M62.22,64.23v.48h-.88v-.48Z"/><path class="cls-1" d="M63.07,64.23v.48h-.88v-.48Z"/><path class="cls-1" d="M63.91,64.23v.48H63v-.48Z"/><path class="cls-1" d="M64.75,64.23v.48h-.87v-.48Z"/><path class="cls-1" d="M65.6,64.23v.48h-.88v-.48Z"/><path class="cls-1" d="M66.44,64.23v.48h-.88v-.48Z"/><path class="cls-1" d="M67.29,64.23v.48h-.88v-.48Z"/><path class="cls-1" d="M68.13,64.23v.48h-.88v-.48Z"/><path class="cls-1" d="M69,64.23v.48H68.1v-.48Z"/><path class="cls-1" d="M69.82,64.23v.48h-.88v-.48Z"/><path class="cls-1" d="M70.74,64.23a.86.86,0,0,1-.17-.33,1.13,1.13,0,0,1-.06-.36,1,1,0,0,1,.25-.69,1,1,0,0,1,.86-.37,1.05,1.05,0,0,1,.67.21.83.83,0,0,1,.29.66v.84a.56.56,0,0,1-.13.35.48.48,0,0,1-.39.17H69.78v-.48Zm.52-2.74a.31.31,0,0,1,.31.31.29.29,0,0,1-.09.21.29.29,0,0,1-.22.09.31.31,0,0,1-.3-.3.29.29,0,0,1,.09-.22A.29.29,0,0,1,71.26,61.49ZM72,63.35a.42.42,0,0,0-.13-.31.41.41,0,0,0-.25-.08.47.47,0,0,0-.44.24.75.75,0,0,0-.09.39.6.6,0,0,0,.62.64h.17a.11.11,0,0,0,.12-.12Zm0-1.86a.31.31,0,0,1,.31.31.29.29,0,0,1-.09.21.29.29,0,0,1-.22.09.31.31,0,0,1-.3-.3.29.29,0,0,1,.09-.22A.29.29,0,0,1,72,61.49Z"/><path class="cls-1" d="M74.57,64.7a1.83,1.83,0,0,1-.4,0,1,1,0,0,1-.81-.39,1.19,1.19,0,0,1-.26-.77,1.11,1.11,0,0,1,.29-.79,1,1,0,0,1,.81-.32,1,1,0,0,1,.64.19.8.8,0,0,1,.32.68V64.6a1.16,1.16,0,0,1-.39.94,1.35,1.35,0,0,1-.55.27,2.13,2.13,0,0,1-.37,0h-.17l-.23-.29v-.2a1.51,1.51,0,0,0,.3,0C74.26,65.36,74.53,65.14,74.57,64.7Zm0-1.35a.35.35,0,0,0-.14-.31A.36.36,0,0,0,74.2,63a.47.47,0,0,0-.38.17.84.84,0,0,0,0,1,.53.53,0,0,0,.43.17.84.84,0,0,0,.31-.05Z"/><path class="cls-1" d="M78,62.53V64.6a1.15,1.15,0,0,1-.36.91,1.42,1.42,0,0,1-.6.3,2,2,0,0,1-.35,0h-.17l-.23-.29v-.2a1.46,1.46,0,0,0,.29,0q.84,0,.84-.81v-2Z"/><path class="cls-1" d="M79.61,64.71a1,1,0,0,1-.82-.35,1.17,1.17,0,0,1-.25-.75,1,1,0,0,1,1.1-1.13,1.15,1.15,0,0,1,.62.17.81.81,0,0,1,.34.7v.88h.15v.48h-.16a1.12,1.12,0,0,1-.36.81,1.27,1.27,0,0,1-.54.28,2.2,2.2,0,0,1-.44,0H79l-.24-.3v-.21l.37,0c.52,0,.8-.21.85-.65ZM80,63.35a.38.38,0,0,0-.38-.39.47.47,0,0,0-.38.17.7.7,0,0,0-.15.47.67.67,0,0,0,.16.46.58.58,0,0,0,.43.17H80Z"/><path class="cls-1" d="M81.6,64.23v.48h-.88v-.48Z"/><path class="cls-1" d="M82.44,64.23v.48h-.88v-.48Z"/><path class="cls-1" d="M83.28,64.23v.48h-.87v-.48Z"/><path class="cls-1" d="M84.13,64.23v.48h-.88v-.48Z"/><path class="cls-1" d="M85,64.23v.48h-.88v-.48Z"/><path class="cls-1" d="M85.81,64.23v.48h-.87v-.48Z"/><path class="cls-1" d="M86.66,64.23v.48h-.88v-.48Z"/><path class="cls-1" d="M87.5,64.23v.48h-.87v-.48Z"/><path class="cls-1" d="M88.35,64.23v.48h-.88v-.48Z"/><path class="cls-1" d="M89.19,64.23v.48h-.88v-.48Z"/><path class="cls-1" d="M90,64.23v.48h-.88v-.48Z"/><path class="cls-1" d="M90.88,64.23v.48H90v-.48Z"/><path class="cls-1" d="M91.8,64.23a1,1,0,0,1-.17-.33,1.12,1.12,0,0,1,0-.36,1,1,0,0,1,.24-.69,1.18,1.18,0,0,1,1.53-.16.83.83,0,0,1,.29.66v.84a.51.51,0,0,1-.13.35.47.47,0,0,1-.38.17H90.85v-.48Zm1.26-.88a.39.39,0,0,0-.13-.31.41.41,0,0,0-.24-.08.47.47,0,0,0-.45.24.75.75,0,0,0-.09.39.63.63,0,0,0,.2.49.6.6,0,0,0,.42.15h.17a.11.11,0,0,0,.12-.12Zm-.37-1.86a.29.29,0,0,1,.21.09.29.29,0,0,1,.09.22.31.31,0,0,1-.3.3.29.29,0,0,1-.22-.09.29.29,0,0,1-.09-.21.31.31,0,0,1,.31-.31Z"/><path class="cls-1" d="M99.1,62.53v1.66a.45.45,0,0,1-.13.34.48.48,0,0,1-.39.18H95.93a.77.77,0,0,1-.53-.19.83.83,0,0,1-.3-.66v-.75l.29-.24h.29v1a.37.37,0,0,0,.11.27.35.35,0,0,0,.25.1H98.4a.11.11,0,0,0,.12-.12V62.53Zm-2.36-.12a.31.31,0,0,1,.22.09.29.29,0,0,1,.09.21.29.29,0,0,1-.09.22.31.31,0,0,1-.22.09.29.29,0,0,1-.22-.09.33.33,0,0,1-.08-.22.32.32,0,0,1,.08-.21A.29.29,0,0,1,96.74,62.41Zm.36-.57a.24.24,0,0,1,.2.08.3.3,0,0,1,.08.2.28.28,0,0,1-.08.2.27.27,0,0,1-.4,0,.24.24,0,0,1-.08-.2.26.26,0,0,1,.08-.2A.24.24,0,0,1,97.1,61.84Zm.36.57a.31.31,0,0,1,.3.3.29.29,0,0,1-.09.22.29.29,0,0,1-.21.09.31.31,0,0,1-.22-.09.29.29,0,0,1-.09-.22.29.29,0,0,1,.09-.21A.31.31,0,0,1,97.46,62.41Z"/><path class="cls-1" d="M100.09,62.51a2.09,2.09,0,0,1,.38,0,1.15,1.15,0,0,1,.88.35,1.09,1.09,0,0,1,.3.78v.46a.67.67,0,0,1,0,.16h.13v.48h-.07l-.15-.19h0a.3.3,0,0,1-.08.08.45.45,0,0,1-.31.11H99.61v-.48H101a.11.11,0,0,0,.12-.12v-.44a.7.7,0,0,0-.2-.52.74.74,0,0,0-.54-.2.82.82,0,0,0-.24,0Z"/><path class="cls-1" d="M102.61,64.23v.48h-.88v-.48Z"/><path class="cls-1" d="M103.45,64.23v.48h-.87v-.48Z"/><path class="cls-1" d="M104.3,64.23v.48h-.88v-.48Z"/><path class="cls-1" d="M105.14,64.23v.48h-.88v-.48Z"/><path class="cls-1" d="M106,64.23v.48h-.88v-.48Z"/><path class="cls-1" d="M106.83,64.23v.48H106v-.48Z"/><path class="cls-1" d="M107.67,64.23v.48h-.87v-.48Z"/><path class="cls-1" d="M108.52,64.23v.48h-.88v-.48Z"/><path class="cls-1" d="M109.36,64.23v.48h-.88v-.48Z"/><path class="cls-1" d="M110,62.61a2.89,2.89,0,0,1,.82-.13,1.23,1.23,0,0,1,.93.36,1.1,1.1,0,0,1,.32.81v.58h.15v.48h-.1l-.15-.19h0a.5.5,0,0,1-.41.19h-2.18v-.48h2a.11.11,0,0,0,.12-.12v-.42a.65.65,0,0,0-.22-.52.8.8,0,0,0-.56-.2,3.54,3.54,0,0,0-.71.1Z"/><path class="cls-1" d="M113.57,61.32v2.87a.49.49,0,0,1-.13.34.48.48,0,0,1-.38.18h-.92v-.48h.73a.12.12,0,0,0,.09,0,.11.11,0,0,0,0-.08V61.32Z"/><path class="cls-1" d="M114.8,61.32V64.6l-.29.23h-.29V61.32Z"/><path class="cls-2" d="M98.67,41.84c0,.43,0,.86.07,1.28a.24.24,0,0,0,.25.22h0a.23.23,0,0,0,.22-.27c0-.32,0-.65,0-1h3.95c0,.34,0,.69,0,1a.25.25,0,0,0,.25.23h0a.25.25,0,0,0,.24-.26c0-.33,0-.66,0-1h7.32V43.2a.25.25,0,0,0,.5,0V42.09H115a.25.25,0,0,0,0-.5h-3.53v-3.1a17.65,17.65,0,0,0,6.71-1.36,17.41,17.41,0,0,1,.52,2.89.27.27,0,0,0,.25.23h0a.26.26,0,0,0,.22-.27,18,18,0,0,0-.56-3.06,11.86,11.86,0,0,0,2.62-1.67,12,12,0,0,1,2,6.34h-.93a.25.25,0,0,0,0,.5h.93c0,.33,0,.66-.06,1a.25.25,0,0,0,.23.27h0a.25.25,0,0,0,.25-.22c0-.42.06-.85.06-1.28a12.34,12.34,0,0,0-2.21-7.08s0,0,0-.06h0a12.59,12.59,0,0,0-3.78-3.56l0,0a12.39,12.39,0,0,0-6.44-1.79,12.52,12.52,0,0,0-6.41,1.78.35.35,0,0,0-.13.08A12.63,12.63,0,0,0,101,34.55a.25.25,0,0,0-.23.34c-.12.18-.24.36-.35.55a.24.24,0,0,0,.08.34.25.25,0,0,0,.34-.09c.09-.15.19-.3.29-.44a15.56,15.56,0,0,0,9.79,3.24v3.1h-7.32c0-.43,0-.85.06-1.28a.25.25,0,0,0-.5,0q0,.66-.06,1.32H99.18a13,13,0,0,1,.1-1.4.24.24,0,0,0-.21-.28.25.25,0,0,0-.28.21A12.43,12.43,0,0,0,98.67,41.84Zm12.27-9.62a18.21,18.21,0,0,1-3.87-.45,5.86,5.86,0,0,1,3.87-1.93Zm.5-2.38a5.84,5.84,0,0,1,3.84,1.93,17.86,17.86,0,0,1-3.84.45Zm-.5,8.15a17.08,17.08,0,0,1-6.58-1.34,12.54,12.54,0,0,1,2.33-4.46,19.09,19.09,0,0,0,4.25.53Zm-6-6.36a12.78,12.78,0,0,0,1.28.42,13,13,0,0,0-2.26,4.39,10.92,10.92,0,0,1-2.48-1.61A12.12,12.12,0,0,1,104.89,31.63Zm3.34-1.43a8,8,0,0,0-1.7,1.43q-.56-.15-1.08-.33A11.93,11.93,0,0,1,108.23,30.2Zm5.94,0a11.52,11.52,0,0,1,2.77,1.1c-.34.12-.7.23-1.06.33A7.83,7.83,0,0,0,114.17,30.2Zm4.3,6.24a13,13,0,0,0-2.24-4.4c.43-.12.86-.26,1.27-.41a11.84,11.84,0,0,1,3.44,3.21A10.94,10.94,0,0,1,118.47,36.44Zm-7,1.55V32.72a19,19,0,0,0,4.23-.53A12.46,12.46,0,0,1,118,36.66,17.26,17.26,0,0,1,111.44,38Z"/><path class="cls-2" d="M111.19,43.63a.43.43,0,0,1-.43-.43v-.93h-7l0,.8a.42.42,0,0,1-.4.45h0a.43.43,0,0,1-.45-.4c0-.28,0-.56,0-.85H99.36c0,.28,0,.54,0,.78a.43.43,0,0,1-.38.47.41.41,0,0,1-.47-.38c0-.43-.06-.87-.06-1.3a12.87,12.87,0,0,1,.12-1.75.4.4,0,0,1,.16-.28.41.41,0,0,1,.32-.08.45.45,0,0,1,.28.16.42.42,0,0,1,.08.32c0,.38-.08.77-.1,1.21H103c0-.42,0-.8,0-1.16a.43.43,0,0,1,.46-.39.4.4,0,0,1,.29.15.38.38,0,0,1,.1.31c0,.34,0,.69,0,1.09h7V38.67a15.72,15.72,0,0,1-9.57-3.16c-.06.09-.12.18-.17.27a.43.43,0,0,1-.59.15.38.38,0,0,1-.19-.26.4.4,0,0,1,0-.32c.1-.17.21-.33.32-.49a.41.41,0,0,1,.11-.35.38.38,0,0,1,.22-.13,12.76,12.76,0,0,1,3.61-3.33.32.32,0,0,1,.17-.1,12.67,12.67,0,0,1,16.87,3.62h0l.06.08a12.6,12.6,0,0,1,2.23,7.18,11.33,11.33,0,0,1-.07,1.3.42.42,0,0,1-.42.38.42.42,0,0,1-.42-.47c0-.24,0-.5,0-.78h-.75a.43.43,0,1,1,0-.85H123a11.9,11.9,0,0,0-1.83-5.91A11.71,11.71,0,0,1,118.82,37a17.92,17.92,0,0,1,.53,2.94.45.45,0,0,1-.1.31.4.4,0,0,1-.29.15h0a.43.43,0,0,1-.46-.38,18.28,18.28,0,0,0-.47-2.66,18,18,0,0,1-6.42,1.29v2.75H115a.43.43,0,0,1,0,.85h-3.36v.93A.42.42,0,0,1,111.19,43.63Zm-7.75-1.72h7.68V43.2c0,.08.14.08.14,0V41.91H115a.07.07,0,0,0,0-.14h-3.71V38.32h.17A17.49,17.49,0,0,0,118.08,37l.19-.08,0,.2a16.87,16.87,0,0,1,.53,2.92.09.09,0,0,0,.07.06A.07.07,0,0,0,119,40a18,18,0,0,0-.55-3l0-.15.14-.06a11.22,11.22,0,0,0,2.57-1.65l.15-.13.11.17a12.09,12.09,0,0,1,2,6.44v.18h-1.11a.07.07,0,1,0,0,.14h1.11v.18c0,.37,0,.7-.06,1a.08.08,0,0,0,.06.08h0a.07.07,0,0,0,.08-.07q.06-.63.06-1.26a12.26,12.26,0,0,0-2.17-7h0l0,0a12.61,12.61,0,0,0-3.75-3.53,12.28,12.28,0,0,0-12.7,0l-.13.07a12.3,12.3,0,0,0-3.57,3.32l-.06.07H101s0,0,0,0,0,0,0,.07l0,.09,0,.08c-.12.18-.24.35-.35.54a.05.05,0,0,0,0,0,.09.09,0,0,0,0,.05.07.07,0,0,0,.1,0c.08-.13.16-.26.25-.39l.15-.23.16.13a15.21,15.21,0,0,0,9.67,3.2h.18v3.45h-7.68v-.18c0-.47,0-.89.06-1.29a.08.08,0,0,0-.07-.08.08.08,0,0,0-.07.07c0,.4,0,.83-.06,1.31v.17H99v-.18a12.24,12.24,0,0,1,.11-1.43.43.43,0,0,0,0,0l0,0s0,0,0,0a0,0,0,0,0,0,0,12,12,0,0,0-.12,1.7,10.64,10.64,0,0,0,.07,1.26.07.07,0,0,0,.07.07.08.08,0,0,0,.07-.08c0-.3,0-.63-.06-1v-.18h4.3v.18c0,.34,0,.68,0,1a.07.07,0,0,0,.07.07.08.08,0,0,0,.07-.08c0-.33,0-.66,0-1Zm18-7.14,0,.06.11-.09Zm-10.16,3.4V32.55h.17a18.79,18.79,0,0,0,4.2-.52l.1,0,.07.08a12.91,12.91,0,0,1,2.38,4.53l0,.16-.14.06a17.4,17.4,0,0,1-6.64,1.35Zm.35-5.27v4.91a17.06,17.06,0,0,0,6.18-1.25,12.4,12.4,0,0,0-2.19-4.17A18.7,18.7,0,0,1,111.61,32.9Zm-.49,5.27h-.18a17.41,17.41,0,0,1-6.65-1.35l-.14-.07,0-.15a12.65,12.65,0,0,1,2.37-4.53l.07-.08.11,0a18.16,18.16,0,0,0,4.2.53h.18Zm-6.54-1.62a16.94,16.94,0,0,0,6.18,1.26V32.9a19.46,19.46,0,0,1-4-.51A12.07,12.07,0,0,0,104.58,36.55Zm-.56.14-.19-.09A11.08,11.08,0,0,1,101.32,35l-.13-.11.1-.13a12.2,12.2,0,0,1,3.5-3.25l.08-.05.08,0c.41.16.84.3,1.27.42l.26.07-.17.21a13.12,13.12,0,0,0-2.23,4.33Zm-2.35-1.88a10.84,10.84,0,0,0,2.13,1.38,13.59,13.59,0,0,1,2.06-4l-1-.32A11.77,11.77,0,0,0,101.67,34.81Zm16.69,1.88-.06-.2a12.72,12.72,0,0,0-2.21-4.33l-.17-.21.26-.08c.42-.12.85-.26,1.26-.41l.08,0,.08,0a12.32,12.32,0,0,1,3.49,3.26l.09.13-.12.11a11.08,11.08,0,0,1-2.51,1.63Zm-1.83-4.55a13.29,13.29,0,0,1,2,4,10.47,10.47,0,0,0,2.12-1.38,11.77,11.77,0,0,0-3.22-3C117.17,31.94,116.85,32.05,116.53,32.14Zm-5.41.26h-.18a18.51,18.51,0,0,1-3.91-.46l-.3-.07.22-.23a6,6,0,0,1,4-2h.19Zm-3.69-.73a18.16,18.16,0,0,0,3.33.37V30A5.6,5.6,0,0,0,107.43,31.67Zm3.83.73V29.66h.19a6,6,0,0,1,4,2l.22.23-.31.07a18.9,18.9,0,0,1-3.88.45Zm.35-2.36v2a18,18,0,0,0,3.32-.37A5.64,5.64,0,0,0,111.61,30Zm-5,1.79-.11,0a11.3,11.3,0,0,1-1.09-.33l-.38-.13.35-.19A12.27,12.27,0,0,1,108.19,30l1.15-.29-1,.62a7.57,7.57,0,0,0-1.66,1.39Zm-.69-.56.57.16a7.79,7.79,0,0,1,.79-.74A10.1,10.1,0,0,0,105.9,31.27Zm9.92.56-.07-.09a8,8,0,0,0-1.67-1.39l-1-.62,1.16.3A12,12,0,0,1,117,31.14l.35.19-.38.14c-.36.12-.73.23-1.08.33Zm-.66-1.14a6.7,6.7,0,0,1,.77.74l.56-.17A11.09,11.09,0,0,0,115.16,30.69Z"/><path class="cls-2" d="M42,45.91a.75.75,0,0,0,.58-.24.76.76,0,0,0,.24-.57.78.78,0,0,0-.24-.57.83.83,0,0,0-.58-.24.8.8,0,0,0-.56.24.78.78,0,0,0-.24.57.76.76,0,0,0,.24.57A.72.72,0,0,0,42,45.91Z"/><path class="cls-2" d="M41.49,43.36a.77.77,0,0,0,.55.22.73.73,0,0,0,.54-.22,0,0,0,0,0,0,0,.78.78,0,0,0,.24-.58.76.76,0,0,0-.24-.56.79.79,0,0,0-1.13,0,.79.79,0,0,0-.23.56.82.82,0,0,0,.23.58Z"/><path class="cls-1" d="M54.17,47.05a.75.75,0,0,0,.57-.23.81.81,0,0,0-.57-1.38.81.81,0,0,0-.57.23.81.81,0,0,0,0,1.15A.77.77,0,0,0,54.17,47.05Z"/><path class="cls-1" d="M77.1,54.77a.57.57,0,0,1-.16.42.61.61,0,0,1-.46.2H73.41a1.35,1.35,0,0,0,0-.39V44.85H72.07v9.92a.56.56,0,0,1-.13.37.58.58,0,0,1-.49.25H68.67a1.81,1.81,0,0,0,0-.39V52.92a4.29,4.29,0,0,0-.91-2.83,3.81,3.81,0,0,0-3.09-1.25,9.23,9.23,0,0,0-2.81.47v1.1a13.65,13.65,0,0,1,2.61-.36,2.74,2.74,0,0,1,2.14.81,2.86,2.86,0,0,1,.67,2v1.9a.55.55,0,0,1-.62.62H59.3a2.34,2.34,0,0,0,0-.39V52.82A3.81,3.81,0,0,0,58.26,50a4.26,4.26,0,0,0-3.15-1.19c-2.43,0-4.38,1.26-5.87,3.79V44.85H47.87V55.39H44.72a.45.45,0,0,1-.33-.17.61.61,0,0,1-.16-.45V48.59h0a2,2,0,0,0-2-1.76H40.42a.06.06,0,0,1-.06-.06A1.34,1.34,0,0,0,39,45.43H35.5a1.34,1.34,0,0,0-1.34,1.34.06.06,0,0,1-.06.06H32.34a2.05,2.05,0,0,0-2,2.05V54.5a2.05,2.05,0,0,0,2,2h9.83a2.07,2.07,0,0,0,1.18-.38,1.42,1.42,0,0,0,1,.38H57.85A1.42,1.42,0,0,0,59,56h0l.47.57h7.73A1.42,1.42,0,0,0,68.4,56h0l.46.57H72A1.4,1.4,0,0,0,73.12,56h0l.54.57H77A1.38,1.38,0,0,0,78.1,56a1.51,1.51,0,0,0,.39-1V49H77.1Zm-39,.49H32.34a.76.76,0,0,1-.75-.76V48.88a.75.75,0,0,1,.75-.75H34.1a1.36,1.36,0,0,0,1.35-1.36.05.05,0,0,1,0-.05H39a.06.06,0,0,1,0,.05,1.36,1.36,0,0,0,1.35,1.36h1.75a.75.75,0,0,1,.76.75V54.5a.7.7,0,0,1-.09.35.76.76,0,0,1-.67.41H38.08Zm19.86-.49a.54.54,0,0,1-.61.62H49.24a9.26,9.26,0,0,1,3.06-4.51A4.49,4.49,0,0,1,54.91,50a3.37,3.37,0,0,1,2,.57,2.4,2.4,0,0,1,1,2.08Z"/><path class="cls-1" d="M77.38,58.25a.71.71,0,0,0-.56.24.74.74,0,0,0-.24.56.78.78,0,0,0,.24.58.77.77,0,0,0,1.12,0,.78.78,0,0,0,.24-.58.74.74,0,0,0-.24-.56A.71.71,0,0,0,77.38,58.25Z"/><path class="cls-1" d="M89.59,47.05a.8.8,0,0,0,.81-.81.74.74,0,0,0-.24-.57.79.79,0,0,0-.57-.23.81.81,0,0,0-.57.23.81.81,0,0,0,0,1.15A.77.77,0,0,0,89.59,47.05Z"/><path class="cls-1" d="M87.61,47.05a.75.75,0,0,0,.56-.23.81.81,0,0,0-.56-1.38A.81.81,0,0,0,87,46.82.77.77,0,0,0,87.61,47.05Z"/><path class="cls-1" d="M100.33,47.05a.78.78,0,0,0,.59-.23.81.81,0,0,0-.59-1.38.8.8,0,0,0-.56.23.81.81,0,0,0,0,1.15A.76.76,0,0,0,100.33,47.05Z"/><path class="cls-1" d="M118.24,44.85v9.92a.68.68,0,0,1-.14.41.57.57,0,0,1-.48.21h-2.78a1.35,1.35,0,0,0,0-.39V52.92a4.24,4.24,0,0,0-.91-2.83,3.81,3.81,0,0,0-3.09-1.25,9.23,9.23,0,0,0-2.81.47v1.1a13.73,13.73,0,0,1,2.62-.36,2.72,2.72,0,0,1,2.13.81,2.86,2.86,0,0,1,.68,2v1.9a.55.55,0,0,1-.62.62h-7.42a1.6,1.6,0,0,0,0-.39V52.82A3.81,3.81,0,0,0,104.44,50a4.3,4.3,0,0,0-3.16-1.19c-2.42,0-4.38,1.26-5.86,3.79V44.85H94.05V55.39H90.89a.41.41,0,0,1-.32-.17.61.61,0,0,1-.17-.45V48.59h-.69l-.7.56a4.14,4.14,0,0,0-1.74-.39,3.46,3.46,0,0,0-2.57,1.06,4,4,0,0,0-1.17,3,4.28,4.28,0,0,0,.81,2.62,3.22,3.22,0,0,0,2.71,1.34A3.89,3.89,0,0,0,89.34,56a1.42,1.42,0,0,0,1.19.57H104a1.41,1.41,0,0,0,1.14-.57h0l.48.57h7.72a1.42,1.42,0,0,0,1.15-.57h.05l.45.57h3.07a1.41,1.41,0,0,0,1.07-.48,1.49,1.49,0,0,0,.42-1.07V44.85ZM89,55.08a4.22,4.22,0,0,1-1.84.47,2.07,2.07,0,0,1-1.64-.69,3.12,3.12,0,0,1-.62-2,2.93,2.93,0,0,1,.64-1.9,2.44,2.44,0,0,1,2-1,3.2,3.2,0,0,1,1.45.36Zm15.1-.31a.54.54,0,0,1-.6.62H95.42a9.19,9.19,0,0,1,3-4.51,4.5,4.5,0,0,1,2.62-.85,3.36,3.36,0,0,1,2,.57,2.4,2.4,0,0,1,1,2.08Z"/><path class="cls-2" d="M38.9,49.49a2.72,2.72,0,0,0-1.64-.55,2.75,2.75,0,1,0,0,5.5,2.43,2.43,0,0,0,.38,0,2.61,2.61,0,0,0,1.24-.5,2.73,2.73,0,0,0,0-4.42Zm-1.53,3.66h-.11a1.41,1.41,0,1,1,.11,0Z"/><rect class="cls-3" x="76.38" y="27.42" width="1.17" height="2.16" rx="0.58" transform="translate(22.16 89.6) rotate(-68.43)"/><path class="cls-2" d="M99.46,40.16l-.84-.06a11.88,11.88,0,0,1,2.17-5.48l.66.5A11.1,11.1,0,0,0,99.46,40.16Z"/></g></svg>